<svg width="36" height="36" viewBox="0 0 36 36" fill="none" xmlns="http://www.w3.org/2000/svg">
<rect width="36" height="36" rx="6" fill="#F12C18"/>
<rect x="0.5" y="0.5" width="35" height="35" rx="5.5" stroke="#F2F2F2" stroke-opacity="0.4"/>
<path d="M17.2262 22.6607C16.0203 22.6607 15.282 21.8839 15.282 20.7947C15.282 19.3036 16.6765 18 18.2105 17.6339L14.6258 8H20.8848L22.025 10.4107H17.6445L20.2613 17.3572C20.4828 17.9107 20.6058 18.5 20.6058 19.0982C20.6058 21.1518 18.7191 22.6607 17.218 22.6607H17.2262Z" fill="white"/>
<path d="M23.6902 13.0714L26.4219 18.1964C26.9469 19.2232 27.2422 20.375 27.275 21.5536C27.275 25.3036 24.5598 28 20.7125 28H15.4625C11.607 28 8.89999 25.2946 8.89999 21.5536C8.93585 20.3779 9.22529 19.2279 9.74492 18.1964L12.4766 13.0714H15.0359L11.8367 19.1161C11.4458 19.8437 11.2286 20.6664 11.2051 21.5089C11.2051 23.8929 12.7062 25.5893 15.5363 25.5893H20.6305C23.4606 25.5893 24.9617 23.8929 24.9617 21.5089C24.9382 20.6664 24.721 19.8437 24.3301 19.1161L21.1309 13.0714H23.6902Z" fill="white"/>
</svg>
