<svg width="36" height="36" viewBox="0 0 36 36" fill="none" xmlns="http://www.w3.org/2000/svg">
<rect width="36" height="36" rx="6" fill="#FAE62D"/>
<rect x="0.5" y="0.5" width="35" height="35" rx="5.5" stroke="#F2F2F2" stroke-opacity="0.4"/>
<path d="M27.9269 27.2573C27.9269 27.364 27.9269 27.4521 27.9269 27.5522C26.2775 27.5522 24.6382 27.5522 22.9856 27.5522C22.9856 26.8293 22.9856 26.1139 22.9856 25.389C22.7948 25.5723 22.6171 25.746 22.4361 25.9164C21.1874 27.0919 19.6977 27.7529 18.0037 27.9449C15.5678 28.221 13.446 27.4461 11.5932 25.9071C9.59882 24.2506 8.4447 22.1011 8.11215 19.5376C7.74166 16.6816 8.26914 14.0109 9.99349 11.6551C11.415 9.71309 13.3258 8.4939 15.7124 8.11735C18.2103 7.72325 20.4567 8.31262 22.3658 10.024C22.4697 10.1171 22.5665 10.2182 22.6641 10.318C22.7607 10.4167 22.8541 10.5185 22.9757 10.6474C22.9757 9.89748 22.9757 9.18 22.9757 8.45228C24.6326 8.45228 26.2674 8.45228 27.9269 8.45228C27.9269 14.7138 27.9269 20.9762 27.9269 27.2573ZM16.6832 23.2884C16.8896 23.3212 17.095 23.3663 17.3028 23.3849C19.0965 23.5454 20.613 22.9867 21.7553 21.575C22.8493 20.2231 23.1782 18.6501 22.8932 16.9561C22.5019 14.6294 20.7207 12.8456 18.4248 12.6237C16.5807 12.4456 15.0281 13.0509 13.918 14.5447C12.5895 16.3325 12.4478 18.3156 13.2628 20.351C13.8788 21.8897 15.032 22.8712 16.6832 23.2884Z" fill="#1E1E1E"/>
<path d="M16.668 23.2838C15.032 22.8712 13.8789 21.8898 13.2628 20.351C12.4478 18.3156 12.5895 16.3326 13.9181 14.5447C15.0281 13.0509 16.5807 12.4456 18.4248 12.6238C20.7207 12.8456 22.5019 14.6295 22.8933 16.9561C23.1782 18.6502 22.8494 20.2231 21.7553 21.5751C20.613 22.9867 19.0965 23.5455 17.3028 23.385C17.0951 23.3664 16.8897 23.3212 16.668 23.2838Z" fill="#FAE62D"/>
</svg>
