<svg width="36" height="36" viewBox="0 0 36 36" fill="none" xmlns="http://www.w3.org/2000/svg">
<rect width="36" height="36" rx="6" fill="url(#paint0_linear_9_281)"/>
<rect x="0.5" y="0.5" width="35" height="35" rx="5.5" stroke="#F2F2F2" stroke-opacity="0.4"/>
<path fill-rule="evenodd" clip-rule="evenodd" d="M23.9721 8.00359C23.9011 8.01013 23.2698 8.122 23.1939 8.13752L14.4563 9.90056L14.453 9.90138C14.2252 9.94956 14.0463 10.0304 13.9083 10.1464C13.7417 10.286 13.6495 10.4836 13.6143 10.7139C13.607 10.7629 13.5947 10.8625 13.5947 11.0095C13.5947 11.0095 13.5947 19.9366 13.5947 21.9454C13.5947 22.201 13.5743 22.4493 13.4012 22.6608C13.2281 22.8723 13.0141 22.936 12.7634 22.9866C12.5732 23.025 12.3829 23.0634 12.1926 23.1018C11.4708 23.2471 11.0012 23.3459 10.5758 23.5109C10.1691 23.6685 9.8645 23.8694 9.62197 24.1241C9.14099 24.628 8.94582 25.3115 9.01278 25.9517C9.06994 26.498 9.31574 27.0206 9.73792 27.4069C10.0229 27.6682 10.379 27.8666 10.7987 27.9507C11.2339 28.0381 11.6978 28.0079 12.3756 27.8707C12.7365 27.798 13.0746 27.6845 13.3963 27.4943C13.7148 27.3064 13.9875 27.0558 14.2007 26.7503C14.4146 26.4441 14.5526 26.1036 14.6286 25.7418C14.707 25.3686 14.7257 25.0314 14.7257 24.659V15.1742C14.7257 14.6663 14.8695 14.5323 15.2794 14.4327C15.2794 14.4327 22.5423 12.9677 22.8811 12.9016C23.354 12.8109 23.5769 12.9457 23.5769 13.4413V19.9162C23.5769 20.1726 23.5744 20.4323 23.3997 20.6446C23.2266 20.8561 23.0126 20.9198 22.7619 20.9704C22.5717 21.0088 22.3814 21.0472 22.1911 21.0856C21.4692 21.2309 20.9997 21.3297 20.5742 21.4947C20.1676 21.6523 19.863 21.8532 19.6205 22.108C19.1395 22.6118 18.9272 23.2953 18.9941 23.9355C19.0513 24.4818 19.3142 25.0044 19.7364 25.3907C20.0214 25.652 20.3774 25.8447 20.7972 25.9297C21.2324 26.017 21.6963 25.986 22.374 25.8496C22.735 25.777 23.073 25.6683 23.3948 25.4781C23.7133 25.2903 23.986 25.0396 24.1991 24.7341C24.4131 24.4279 24.5511 24.0874 24.627 23.7256C24.7054 23.3525 24.7087 23.0152 24.7087 22.6428V8.7761C24.7103 8.27307 24.4449 7.96276 23.9721 8.00359Z" fill="white"/>
<defs>
<linearGradient id="paint0_linear_9_281" x1="18" y1="35.8613" x2="18" y2="0.775876" gradientUnits="userSpaceOnUse">
<stop stop-color="#FA233B"/>
<stop offset="1" stop-color="#FB5C74"/>
</linearGradient>
</defs>
</svg>
