<svg width="36" height="36" viewBox="0 0 36 36" fill="none" xmlns="http://www.w3.org/2000/svg">
<rect width="36" height="36" rx="6" fill="#0D0D0D"/>
<rect x="0.5" y="0.5" width="35" height="35" rx="5.5" stroke="#F2F2F2" stroke-opacity="0.05"/>
<path fill-rule="evenodd" clip-rule="evenodd" d="M7.48856 17.4761C7.48856 17.4761 7.96253 17.3998 8.15786 17.5979C8.35388 17.7953 8.22507 18.2049 7.96603 18.2112C7.70629 18.2182 7.46686 18.2644 7.29603 18.0894C7.25194 18.0414 7.22126 17.9827 7.20707 17.9191C7.19288 17.8555 7.19568 17.7893 7.21519 17.7271C7.23471 17.665 7.27024 17.609 7.31823 17.565C7.36622 17.5209 7.42497 17.4902 7.48856 17.4761ZM12.4915 20.2177C12.1519 19.7584 12.0294 18.1895 11.8726 18.0964C11.7116 17.999 11.1249 18.9652 9.95991 18.8616C9.47195 18.8182 8.97627 18.5115 8.68433 18.3001C8.71164 17.9437 8.71584 17.1113 9.44184 17.3816C9.8829 17.5461 10.6383 17.9976 11.3013 17.1869C12.0343 16.2901 12.439 16.5505 12.6812 16.7459C12.9241 16.9405 12.7624 17.9542 13.1237 17.6707C13.4856 17.3879 14.946 15.6278 14.946 15.6278C14.946 15.6278 16.0767 14.523 16.2496 15.6838C16.4225 16.846 17.1597 18.1321 17.3558 18.0957C17.5511 18.0593 19.825 13.5807 20.1513 13.2923C20.4768 13.0031 21.5732 13.0409 21.5214 13.7823C21.4696 14.5237 21.3575 19.1304 21.3575 19.1304C21.3575 19.1304 21.2287 20.4284 21.4381 19.7346C21.5256 19.4469 21.6187 19.1871 21.7349 18.8847C22.2964 17.1435 23.2527 14.1702 23.7288 12.6377L24.006 11.7135C24.034 11.6015 24.0627 11.5126 24.0914 11.4335C24.1313 11.3033 24.1579 11.2172 24.1663 11.1955C24.1874 11.1374 24.2476 11.094 24.3316 11.0618C24.4156 11.0106 24.5059 11.0078 24.6081 11.0057C24.9146 10.9858 25.2223 11.0178 25.5182 11.1003C25.6181 11.1043 25.7146 11.1371 25.7962 11.1948L25.8095 11.2032L25.8158 11.2074C25.8476 11.2304 25.8765 11.2572 25.9019 11.2872L25.9054 11.2914C25.9215 11.3115 25.9364 11.3326 25.9502 11.3544C26.121 11.5966 26.226 12.044 26.121 12.8372C25.8585 14.8171 25.6555 18.8903 25.6555 18.8903C25.6555 18.8903 25.6149 19.0849 26.0363 18.2273C26.051 18.1972 26.0699 18.1713 26.0874 18.144C26.1176 18.1242 26.1445 18.0999 26.1672 18.0719C26.427 17.7708 27.1264 17.5951 27.6122 17.5986C27.8167 17.6224 27.9882 17.6721 28.0904 17.7351C28.2815 18.0172 28.1688 19.059 28.1688 19.059C27.7649 19.0954 26.9955 19.3054 26.7231 19.3446C26.4501 19.3831 26.0356 21.0991 25.4601 20.9241C24.884 20.7483 23.6007 19.9684 23.6007 19.8613C23.6007 19.7682 23.7015 18.6277 23.7281 18.3337L23.733 18.2763L23.7337 18.2644C23.7526 18.0334 23.7358 17.9318 23.6252 18.1629C23.5307 18.3617 23.1169 19.6345 22.6562 21.0207C22.6072 21.1418 21.7363 23.6958 21.6215 24.0073C21.485 24.3686 21.3708 24.6451 21.2917 24.7879C21.1706 24.9461 21.0082 25.0456 20.7814 24.979C20.2157 24.8131 19.4995 24.0556 19.4925 23.868C19.4785 22.808 19.5457 17.1085 19.2803 17.5839C19.008 18.0705 16.8909 21.4505 16.8909 21.4505C16.8559 21.4561 16.8293 21.4547 16.7985 21.4575C16.6487 21.4421 16.4162 21.3945 16.3518 21.2559L16.3406 21.2314L16.3287 21.1971C16.3007 21.1047 16.2881 21.0032 16.2629 20.9206C16.1354 20.5167 16.0003 20.1152 15.8576 19.7164C15.6139 18.9463 15.3633 18.1587 15.322 18.0719C15.2408 17.9017 15.1232 17.9738 15.0174 18.0719C14.5449 18.4604 13.5416 20.1736 12.635 20.2674C12.5895 20.2723 12.5412 20.252 12.4915 20.2177Z" fill="url(#paint0_linear_9_388)"/>
<defs>
<linearGradient id="paint0_linear_9_388" x1="6.69807" y1="18" x2="28.2018" y2="18" gradientUnits="userSpaceOnUse">
<stop stop-color="#FFA200"/>
<stop offset="1" stop-color="#E39000"/>
</linearGradient>
</defs>
</svg>
