<svg width="36" height="36" viewBox="0 0 36 36" fill="none" xmlns="http://www.w3.org/2000/svg">
<rect width="36" height="36" rx="6" fill="#A238FF"/>
<rect x="0.5" y="0.5" width="35" height="35" rx="5.5" stroke="#F2F2F2" stroke-opacity="0.4"/>
<path d="M25.5311 9.8029C25.2302 9.80395 24.9591 10.4786 24.774 11.551C24.4742 9.70224 23.9865 8.5 23.4379 8.5C22.7847 8.5 22.2191 10.1999 21.9519 12.6681C21.6889 10.8719 21.2916 9.72634 20.8477 9.72634C20.2241 9.72634 19.6939 11.9791 19.4974 15.1208C19.1284 13.5103 18.5939 12.4994 18.0015 12.4994C17.4091 12.4994 16.8746 13.5103 16.5056 15.1208C16.3091 11.9791 15.7789 9.72634 15.1554 9.72634C14.71 9.72634 14.3127 10.8719 14.0511 12.6681C13.7825 10.1999 13.2169 8.5 12.5637 8.5C12.0137 8.5 11.5274 9.70224 11.2276 11.551C11.041 10.4792 10.7709 9.8029 10.4698 9.8029C9.90845 9.8029 9.45319 12.1436 9.45319 15.0315C9.45319 17.9194 9.90845 20.2601 10.4698 20.2601C10.7002 20.2601 10.9137 19.8646 11.0834 19.1968C11.3534 21.6353 11.9147 23.3111 12.5637 23.3111C13.0671 23.3111 13.5167 22.3045 13.8193 20.7166C14.0271 23.7364 14.546 25.8786 15.1539 25.8786C15.5371 25.8786 15.8849 25.0294 16.1408 23.6471C16.4491 26.501 17.1659 28.5 18.0001 28.5C18.8343 28.5 19.5497 26.501 19.8593 23.6471C20.1167 25.0294 20.4645 25.8786 20.8462 25.8786C21.4542 25.8786 21.9745 23.7364 22.1809 20.7166C22.4835 22.3045 22.9345 23.3111 23.4365 23.3111C24.0854 23.3111 24.6467 21.6353 24.9168 19.1968C25.0879 19.8631 25.2999 20.2601 25.5304 20.2601C26.0917 20.2601 26.547 17.9194 26.547 15.0315C26.547 12.1448 26.0922 9.80486 25.5311 9.8029Z" fill="#1B191F"/>
<path d="M25.5312 9.80291L25.5304 9.8029H25.5319L25.5312 9.80291Z" fill="#1B191F"/>
<path d="M8.57692 16.8556C8.89554 16.8556 9.15383 15.809 9.15383 14.5179C9.15383 13.2269 8.89554 12.1803 8.57692 12.1803C8.25829 12.1803 8 13.2269 8 14.5179C8 15.809 8.25829 16.8556 8.57692 16.8556Z" fill="#1B191F"/>
<path d="M28 14.5179C28 15.809 27.7417 16.8556 27.4231 16.8556C27.1045 16.8556 26.8461 15.809 26.8461 14.5179C26.8461 13.2269 27.1045 12.1803 27.4231 12.1803C27.7417 12.1803 28 13.2269 28 14.5179Z" fill="#1B191F"/>
</svg>
