<svg width="36" height="36" viewBox="0 0 36 36" fill="none" xmlns="http://www.w3.org/2000/svg">
<rect width="36" height="36" rx="6" fill="#5865F2"/>
<rect x="0.5" y="0.5" width="35" height="35" rx="5.5" stroke="#F2F2F2" stroke-opacity="0.4"/>
<mask id="mask0_14_1777" style="mask-type:luminance" maskUnits="userSpaceOnUse" x="7" y="10" width="22" height="16">
<path d="M28.5 10H7.5V26H28.5V10Z" fill="white"/>
</mask>
<g mask="url(#mask0_14_1777)">
<path d="M25.2774 11.4248C23.9389 10.8208 22.5036 10.3757 21.0029 10.1209C20.9756 10.1159 20.9483 10.1282 20.9342 10.1528C20.7496 10.4757 20.5451 10.897 20.402 11.2281C18.7879 10.9904 17.182 10.9904 15.601 11.2281C15.4578 10.8896 15.2459 10.4757 15.0605 10.1528C15.0464 10.129 15.0191 10.1168 14.9918 10.1209C13.4919 10.3749 12.0566 10.82 10.7173 11.4248C10.7057 11.4297 10.6958 11.4379 10.6892 11.4486C7.96672 15.449 7.22092 19.3511 7.58678 23.2048C7.58844 23.2236 7.5992 23.2417 7.6141 23.2531C9.41031 24.5505 11.1502 25.3382 12.8579 25.8602C12.8852 25.8684 12.9142 25.8586 12.9315 25.8365C13.3355 25.2939 13.6956 24.7218 14.0043 24.1202C14.0225 24.085 14.0051 24.0432 13.9679 24.0293C13.3967 23.8162 12.8529 23.5564 12.3298 23.2613C12.2884 23.2376 12.2851 23.1793 12.3231 23.1515C12.4332 23.0703 12.5433 22.9859 12.6485 22.9007C12.6675 22.8851 12.694 22.8818 12.7163 22.8917C16.1531 24.435 19.8739 24.435 23.2701 22.8917C23.2924 22.881 23.3189 22.8843 23.3388 22.8999C23.4439 22.9851 23.554 23.0703 23.6649 23.1515C23.703 23.1793 23.7005 23.2376 23.6591 23.2613C23.136 23.5621 22.5922 23.8162 22.0202 24.0285C21.983 24.0424 21.9664 24.085 21.9846 24.1202C22.3 24.721 22.66 25.2931 23.0565 25.8356C23.0731 25.8586 23.1029 25.8684 23.1302 25.8602C24.8461 25.3382 26.586 24.5505 28.3823 23.2531C28.398 23.2417 28.4079 23.2244 28.4096 23.2056C28.8474 18.7503 27.6762 14.8802 25.3047 11.4494C25.2989 11.4379 25.289 11.4297 25.2774 11.4248ZM14.5175 20.8583C13.4828 20.8583 12.6302 19.924 12.6302 18.7765C12.6302 17.6291 13.4663 16.6948 14.5175 16.6948C15.577 16.6948 16.4213 17.6373 16.4048 18.7765C16.4048 19.924 15.5687 20.8583 14.5175 20.8583ZM21.4954 20.8583C20.4607 20.8583 19.6082 19.924 19.6082 18.7765C19.6082 17.6291 20.4442 16.6948 21.4954 16.6948C22.5549 16.6948 23.3992 17.6373 23.3827 18.7765C23.3827 19.924 22.5549 20.8583 21.4954 20.8583Z" fill="white"/>
</g>
</svg>
