<svg width="36" height="36" viewBox="0 0 36 36" fill="none" xmlns="http://www.w3.org/2000/svg">
<rect width="36" height="36" rx="6" fill="#8B5CF6"/>
<rect x="0.5" y="0.5" width="35" height="35" rx="5.5" stroke="#F2F2F2" stroke-opacity="0.4"/>
<path d="M9.54024 10.9H27.2597C27.5626 10.903 27.8521 11.0265 28.0655 11.2437C28.279 11.461 28.3991 11.7544 28.4 12.0605V24.3668C28.4017 24.6016 28.3323 24.8313 28.2012 25.0252C28.1777 25.0873 28.141 25.1435 28.0937 25.1898C28.062 25.2205 28.0257 25.246 27.9862 25.2655C27.7807 25.4408 27.5205 25.537 27.2516 25.5371H9.54024C9.23875 25.5341 8.95045 25.4118 8.73725 25.1963C8.52405 24.9809 8.40296 24.6895 8.39999 24.3849V12.0605C8.40084 11.7544 8.52098 11.461 8.73441 11.2437C8.94783 11.0265 9.23735 10.903 9.54024 10.9ZM9.49138 23.8779L15.4826 17.5865L9.49138 12.4704V23.8779ZM16.385 18.3717L9.98331 24.6367H26.7613L20.6446 18.3717L18.8528 19.8877C18.7739 19.954 18.6745 19.9903 18.5718 19.9903C18.4692 19.9903 18.3698 19.954 18.2908 19.8877L16.385 18.3717ZM21.5324 17.5749L27.3086 23.9289V12.4144L21.5324 17.5749ZM10.055 11.7905L18.5547 18.7519L26.6798 11.7905H10.055Z" fill="white"/>
</svg>
