<svg width="36" height="36" viewBox="0 0 36 36" fill="none" xmlns="http://www.w3.org/2000/svg">
<rect width="36" height="36" rx="6" fill="#8B5CF6"/>
<rect x="0.5" y="0.5" width="35" height="35" rx="5.5" stroke="#F2F2F2" stroke-opacity="0.4"/>
<path d="M9.14025 10.9H26.8597C27.1626 10.903 27.4521 11.0265 27.6656 11.2437C27.879 11.461 27.9991 11.7544 28 12.0605V24.3668C28.0017 24.6016 27.9323 24.8313 27.8012 25.0252C27.7777 25.0873 27.741 25.1435 27.6937 25.1898C27.662 25.2205 27.6257 25.246 27.5862 25.2655C27.3807 25.4408 27.1205 25.537 26.8516 25.5371H9.14025C8.83876 25.5341 8.55045 25.4118 8.33726 25.1963C8.12406 24.9809 8.00297 24.6895 8 24.3849V12.0605C8.00084 11.7544 8.12099 11.461 8.33441 11.2437C8.54784 11.0265 8.83736 10.903 9.14025 10.9ZM9.09138 23.8779L15.0826 17.5865L9.09138 12.4704V23.8779ZM15.985 18.3717L9.58332 24.6367H26.3613L20.2446 18.3717L18.4528 19.8877C18.3739 19.954 18.2745 19.9903 18.1718 19.9903C18.0692 19.9903 17.9698 19.954 17.8908 19.8877L15.985 18.3717ZM21.1324 17.5749L26.9086 23.9289V12.4144L21.1324 17.5749ZM9.65499 11.7905L18.1547 18.7519L26.2798 11.7905H9.65499Z" fill="white"/>
</svg>
