<svg width="36" height="36" viewBox="0 0 36 36" fill="none" xmlns="http://www.w3.org/2000/svg">
<rect width="36" height="36" rx="6" fill="#8B5CF6"/>
<rect x="0.3" y="0.3" width="35.4" height="35.4" rx="5.7" stroke="#F2F2F2" stroke-opacity="0.4" stroke-width="0.6"/>
<path d="M8.27124 10H28.0264C28.3641 10.0034 28.6869 10.1411 28.9248 10.3832C29.1627 10.6254 29.2967 10.9526 29.2976 11.2938V25.0139C29.2995 25.2757 29.2222 25.5318 29.0761 25.748C29.0498 25.8172 29.0089 25.8798 28.9562 25.9315C28.9208 25.9657 28.8804 25.9942 28.8363 26.0159C28.6072 26.2113 28.3171 26.3185 28.0173 26.3187H8.27124C7.93512 26.3154 7.61369 26.1789 7.376 25.9387C7.13831 25.6985 7.00331 25.3737 7 25.0341V11.2938C7.00094 10.9526 7.13489 10.6254 7.37283 10.3832C7.61078 10.1411 7.93355 10.0034 8.27124 10ZM8.21676 24.4688L14.8962 17.4546L8.21676 11.7508V24.4688ZM15.9023 18.33L8.76521 25.3148H27.4707L20.6514 18.33L18.6537 20.0203C18.5657 20.0941 18.4548 20.1346 18.3404 20.1346C18.226 20.1346 18.1152 20.0941 18.0271 20.0203L15.9023 18.33ZM21.6411 17.4418L28.0809 24.5257V11.6884L21.6411 17.4418ZM8.84512 10.9928L18.3213 18.754L27.3799 10.9928H8.84512Z" fill="white"/>
</svg>
