<svg width="36" height="36" viewBox="0 0 36 36" fill="none" xmlns="http://www.w3.org/2000/svg">
<rect width="36" height="36" rx="6" fill="url(#paint0_linear_6_90)"/>
<rect x="0.5" y="0.5" width="35" height="35" rx="5.5" stroke="#F2F2F2" stroke-opacity="0.4"/>
<path d="M22.5832 28H13.4167C10.4299 28 7.99994 25.5702 7.99994 22.5833V13.4167C7.99994 10.4297 10.4299 8 13.4167 8H22.5832C25.5702 8 27.9999 10.4297 27.9999 13.4167V22.5835C27.9999 25.5702 25.5702 28 22.5832 28ZM13.4167 9.66675C11.3489 9.66675 9.66669 11.349 9.66669 13.4167V22.5835C9.66669 24.6512 11.3489 26.3335 13.4167 26.3335H22.5832C24.6509 26.3335 26.3332 24.6512 26.3332 22.5835V13.4167C26.3332 11.349 24.6509 9.66675 22.5832 9.66675H13.4167Z" fill="white"/>
<path d="M18 23C15.243 23 13 20.7568 13 18C13 15.2428 15.243 13 18 13C20.757 13 23 15.2428 23 18C23 20.7568 20.757 23 18 23ZM18 14.6668C16.162 14.6668 14.6667 16.162 14.6667 18C14.6667 19.8383 16.162 21.3333 18 21.3333C19.838 21.3333 21.3332 19.8383 21.3332 18C21.3332 16.162 19.8382 14.6668 18 14.6668Z" fill="white"/>
<path d="M23.3124 13.8332C23.9452 13.8332 24.4582 13.3203 24.4582 12.6875C24.4582 12.0547 23.9452 11.5417 23.3124 11.5417C22.6797 11.5417 22.1667 12.0547 22.1667 12.6875C22.1667 13.3203 22.6797 13.8332 23.3124 13.8332Z" fill="white"/>
<defs>
<linearGradient id="paint0_linear_6_90" x1="7.67492" y1="32.7461" x2="28.3254" y2="3.25418" gradientUnits="userSpaceOnUse">
<stop stop-color="#FFB900"/>
<stop offset="1" stop-color="#9100EB"/>
</linearGradient>
</defs>
</svg>
