<svg width="36" height="36" viewBox="0 0 36 36" fill="none" xmlns="http://www.w3.org/2000/svg">
<rect width="36" height="36" rx="6" fill="url(#paint0_linear_6_90)"/>
<rect x="0.3" y="0.3" width="35.4" height="35.4" rx="5.7" stroke="#F2F2F2" stroke-opacity="0.4" stroke-width="0.6"/>
<path d="M22.1248 26.9999H13.875C11.187 26.9999 9 24.8131 9 22.1248V13.875C9 11.1868 11.187 9 13.875 9H22.1248C24.8131 9 26.9999 11.1868 26.9999 13.875V22.1251C26.9999 24.8131 24.8131 26.9999 22.1248 26.9999ZM13.875 10.5001C12.0141 10.5001 10.5001 12.0141 10.5001 13.875V22.1251C10.5001 23.986 12.0141 25.5 13.875 25.5H22.1248C23.9858 25.5 25.4998 23.986 25.4998 22.1251V13.875C25.4998 12.0141 23.9858 10.5001 22.1248 10.5001H13.875Z" fill="white"/>
<path d="M18 22.4999C15.5187 22.4999 13.5 20.481 13.5 18C13.5 15.5184 15.5187 13.5 18 13.5C20.4813 13.5 22.5 15.5184 22.5 18C22.5 20.481 20.4813 22.4999 18 22.4999ZM18 15.0001C16.3458 15.0001 15.0001 16.3458 15.0001 18C15.0001 19.6544 16.3458 20.9999 18 20.9999C19.6542 20.9999 20.9999 19.6544 20.9999 18C20.9999 16.3458 19.6544 15.0001 18 15.0001Z" fill="white"/>
<path d="M22.7812 14.2499C23.3507 14.2499 23.8123 13.7882 23.8123 13.2187C23.8123 12.6492 23.3507 12.1875 22.7812 12.1875C22.2117 12.1875 21.75 12.6492 21.75 13.2187C21.75 13.7882 22.2117 14.2499 22.7812 14.2499Z" fill="white"/>
<defs>
<linearGradient id="paint0_linear_6_90" x1="7.67492" y1="32.7461" x2="28.3254" y2="3.25418" gradientUnits="userSpaceOnUse">
<stop stop-color="#FFB900"/>
<stop offset="1" stop-color="#9100EB"/>
</linearGradient>
</defs>
</svg>
