<svg width="36" height="36" viewBox="0 0 36 36" fill="none" xmlns="http://www.w3.org/2000/svg">
<rect width="36" height="36" rx="6" fill="#FFFC00"/>
<rect x="0.5" y="0.5" width="35" height="35" rx="5.5" stroke="#F2F2F2" stroke-opacity="0.4"/>
<path d="M26.6585 22.8403C23.5068 21.3146 23.0045 18.959 22.9821 18.7843C22.9551 18.5726 22.9244 18.4062 23.1579 18.191C23.383 17.983 24.382 17.3647 24.6591 17.1712C25.1172 16.8509 25.319 16.5311 25.1703 16.138C25.0663 15.866 24.813 15.7636 24.5463 15.7636C24.4621 15.7639 24.3783 15.7733 24.2962 15.7917C23.7928 15.9009 23.304 16.1531 23.0211 16.2212C22.9871 16.23 22.9522 16.2347 22.9171 16.2352C22.7663 16.2352 22.7091 16.1682 22.7237 15.9867C22.759 15.4365 22.8339 14.3627 22.7471 13.3596C22.628 11.9796 22.1829 11.2958 21.6551 10.691C21.3998 10.3977 20.2142 9.13776 17.9262 9.13776C15.6382 9.13776 14.4541 10.3977 14.2004 10.6874C13.671 11.2921 13.2264 11.9759 13.1084 13.356C13.0215 14.3591 13.0995 15.4324 13.1318 15.983C13.1422 16.1557 13.0891 16.2316 12.9383 16.2316C12.9032 16.231 12.8683 16.2263 12.8343 16.2176C12.552 16.1494 12.0632 15.8972 11.5598 15.788C11.4777 15.7696 11.3938 15.7602 11.3097 15.76C11.0419 15.76 10.7897 15.864 10.6857 16.1344C10.537 16.5275 10.7377 16.8473 11.1974 17.1676C11.4745 17.361 12.4734 17.9788 12.6986 18.1873C12.9316 18.4026 12.9014 18.569 12.8744 18.7806C12.852 18.958 12.3492 21.3136 9.19797 22.8366C9.01337 22.9261 8.69929 23.1154 9.25309 23.4211C10.1225 23.9016 10.7013 23.8501 11.1511 24.1398C11.5328 24.3857 11.3071 24.9161 11.5848 25.1075C11.9259 25.343 12.9342 25.0908 14.2368 25.5209C15.3288 25.8807 15.9923 26.8973 17.9288 26.8973C19.8652 26.8973 20.548 25.876 21.6208 25.5209C22.9208 25.0908 23.9311 25.343 24.2728 25.1075C24.5499 24.9161 24.3248 24.3857 24.7064 24.1398C25.1562 23.8501 25.7345 23.9016 26.6044 23.4211C27.1572 23.119 26.8431 22.9297 26.6585 22.8403Z" fill="white"/>
<path d="M28.0298 22.6609C27.8883 22.2761 27.619 22.0702 27.3122 21.8996C27.2544 21.8658 27.2014 21.8388 27.1562 21.818C27.0646 21.7706 26.971 21.7249 26.878 21.6765C25.9217 21.1695 25.175 20.5299 24.657 19.7718C24.51 19.5583 24.3824 19.3321 24.2759 19.0958C24.2317 18.9694 24.2338 18.8976 24.2655 18.8321C24.2969 18.7816 24.3386 18.7383 24.3877 18.7047C24.552 18.596 24.7215 18.4858 24.8364 18.4114C25.0413 18.2788 25.2036 18.1738 25.3081 18.0994C25.7007 17.8249 25.9752 17.5332 26.1468 17.2071C26.2666 16.9819 26.3364 16.7335 26.3515 16.4788C26.3667 16.2242 26.3269 15.9692 26.2347 15.7314C25.9747 15.047 25.3284 14.6222 24.5452 14.6222C24.3801 14.622 24.2153 14.6395 24.0538 14.6742C24.0107 14.6836 23.9675 14.6934 23.9254 14.7044C23.9327 14.2364 23.9223 13.7424 23.8807 13.2562C23.733 11.5469 23.1345 10.651 22.5105 9.93648C22.1109 9.48876 21.6402 9.10997 21.1174 8.81536C20.1705 8.27456 19.0967 8 17.9262 8C16.7556 8 15.687 8.27456 14.7391 8.81536C14.215 9.11006 13.7434 9.4896 13.3434 9.93856C12.7194 10.653 12.1209 11.5506 11.9732 13.2582C11.9316 13.7444 11.9212 14.241 11.928 14.7064C11.8858 14.6955 11.8432 14.6856 11.8 14.6763C11.6385 14.6416 11.4738 14.6241 11.3086 14.6243C10.525 14.6243 9.8776 15.0491 9.61864 15.7334C9.52607 15.9714 9.48583 16.2265 9.50063 16.4814C9.51544 16.7364 9.58495 16.9851 9.70444 17.2108C9.87656 17.5368 10.1511 17.8285 10.5437 18.1031C10.6477 18.1759 10.8105 18.2809 11.0154 18.4151C11.1261 18.4868 11.2878 18.5919 11.4464 18.6969C11.5019 18.7328 11.5491 18.7801 11.5848 18.8358C11.618 18.9039 11.6191 18.9772 11.5697 19.1124C11.4646 19.3437 11.3391 19.5653 11.1948 19.7744C10.6883 20.5154 9.9634 21.1435 9.0378 21.6464C8.54744 21.9064 8.03784 22.08 7.82256 22.665C7.66032 23.1065 7.7664 23.6088 8.17876 24.0321C8.3301 24.1901 8.50563 24.323 8.69876 24.4258C9.10061 24.6466 9.52791 24.8176 9.9712 24.9348C10.0627 24.9584 10.1495 24.9973 10.2281 25.0498C10.3784 25.1813 10.357 25.3794 10.5572 25.6696C10.6577 25.8196 10.7854 25.9494 10.9337 26.0523C11.3539 26.3425 11.826 26.3607 12.3263 26.3799C12.7782 26.3971 13.2904 26.4168 13.8754 26.6098C14.1177 26.6898 14.3694 26.8448 14.6611 27.0258C15.3615 27.4563 16.3204 28.0455 17.9251 28.0455C19.5298 28.0455 20.4955 27.4532 21.2011 27.0211C21.4908 26.8432 21.7409 26.6898 21.9764 26.6118C22.5614 26.4184 23.0736 26.3992 23.5255 26.382C24.0258 26.3628 24.4979 26.3446 24.9181 26.0544C25.0937 25.9319 25.24 25.7721 25.3466 25.5864C25.4906 25.3415 25.487 25.1704 25.6222 25.0508C25.6959 25.0008 25.7774 24.9636 25.8634 24.9406C26.3128 24.8229 26.7459 24.6504 27.153 24.4268C27.3582 24.3167 27.5429 24.1721 27.699 23.9994L27.7042 23.9931C28.0911 23.5792 28.1884 23.0914 28.0298 22.6609ZM26.6034 23.4274C25.7334 23.9078 25.1552 23.8564 24.7054 24.146C24.3232 24.392 24.5494 24.9224 24.2717 25.1137C23.9306 25.3493 22.9223 25.0971 21.6197 25.5271C20.5454 25.8823 19.86 26.9036 17.9277 26.9036C15.9954 26.9036 15.3262 25.8844 14.2342 25.5245C12.9342 25.0945 11.9238 25.3467 11.5822 25.1111C11.305 24.9198 11.5302 24.3894 11.1485 24.1434C10.6982 23.8538 10.1199 23.9052 9.25048 23.4274C8.69668 23.1216 9.01076 22.9323 9.19536 22.8429C12.3466 21.3172 12.8494 18.9616 12.8718 18.7869C12.8988 18.5752 12.929 18.4088 12.696 18.1936C12.4708 17.9856 11.4719 17.3673 11.1948 17.1738C10.7361 16.8535 10.5344 16.5337 10.6831 16.1406C10.7871 15.8686 11.0408 15.7662 11.3071 15.7662C11.3912 15.7665 11.4751 15.7759 11.5572 15.7943C12.0606 15.9035 12.5494 16.1557 12.8317 16.2238C12.8657 16.2325 12.9006 16.2372 12.9357 16.2378C13.0865 16.2378 13.1396 16.1619 13.1292 15.9893C13.0969 15.4386 13.0189 14.3653 13.1058 13.3622C13.2248 11.9822 13.6694 11.2984 14.1978 10.6936C14.4515 10.4029 15.6439 9.14296 17.9241 9.14296C20.2043 9.14296 21.3998 10.3977 21.6535 10.6874C22.1824 11.2921 22.6275 11.9759 22.7455 13.356C22.8324 14.3591 22.7575 15.4329 22.7221 15.983C22.7102 16.1645 22.7648 16.2316 22.9156 16.2316C22.9507 16.231 22.9856 16.2263 23.0196 16.2176C23.3024 16.1494 23.7912 15.8972 24.2946 15.788C24.3767 15.7696 24.4606 15.7602 24.5447 15.76C24.8125 15.76 25.0647 15.864 25.1687 16.1344C25.3174 16.5275 25.1167 16.8473 24.6576 17.1676C24.3804 17.361 23.3815 17.9788 23.1563 18.1873C22.9228 18.4026 22.9535 18.569 22.9806 18.7806C23.0029 18.958 23.5052 21.3136 26.657 22.8366C26.8431 22.9297 27.1572 23.119 26.6034 23.4274Z" fill="black"/>
</svg>
