<svg width="36" height="36" viewBox="0 0 36 36" fill="none" xmlns="http://www.w3.org/2000/svg">
<rect width="36" height="36" rx="6" fill="#FF5500"/>
<rect x="0.5" y="0.5" width="35" height="35" rx="5.5" stroke="#F2F2F2" stroke-opacity="0.4"/>
<path d="M29.1648 20.1941C29.0715 21.9067 27.6857 23.239 26.0225 23.2151H18.47C18.1241 23.2117 17.8449 22.9225 17.8433 22.5658V14.1797C17.8321 13.8852 17.9977 13.6138 18.2601 13.4969C18.2601 13.4969 18.9548 13 20.418 13C21.3119 12.9989 22.1893 13.2475 22.9572 13.7194C24.1689 14.4546 25.0266 15.6796 25.322 17.097C25.5826 17.021 25.8522 16.983 26.123 16.9842C26.9437 16.9789 27.7313 17.3178 28.3049 17.9231C28.8785 18.5284 29.1888 19.3482 29.1648 20.1941ZM16.9004 14.7101C17.128 17.5542 17.2935 20.1484 16.9004 22.9834C16.8867 23.1116 16.7816 23.2087 16.6565 23.2087C16.5314 23.2087 16.4263 23.1116 16.4126 22.9834C16.0461 20.1728 16.2057 17.5299 16.4126 14.7101C16.4023 14.6137 16.4464 14.5196 16.5261 14.4681C16.6058 14.4165 16.7071 14.4165 16.7869 14.4681C16.8666 14.5196 16.9107 14.6137 16.9004 14.7101ZM15.3721 22.9864C15.3529 23.1159 15.2449 23.2115 15.1179 23.2115C14.9909 23.2115 14.8829 23.1159 14.8637 22.9864C14.5903 20.561 14.5903 18.111 14.8637 15.6856C14.8778 15.5509 14.988 15.4488 15.1194 15.4488C15.2508 15.4488 15.361 15.5509 15.3751 15.6856C15.6786 18.1092 15.6776 20.5631 15.3721 22.9864ZM13.8409 15.4387C14.0892 18.045 14.2015 20.3801 13.838 22.9804C13.838 23.1201 13.7281 23.2334 13.5926 23.2334C13.4571 23.2334 13.3473 23.1201 13.3473 22.9804C12.9955 20.4136 13.1137 18.0115 13.3473 15.4387C13.3611 15.3089 13.4674 15.2105 13.5941 15.2105C13.7208 15.2105 13.8271 15.3089 13.8409 15.4387ZM12.3068 22.9895C12.2929 23.1209 12.1852 23.2205 12.057 23.2205C11.9287 23.2205 11.8211 23.1209 11.8072 22.9895C11.5249 20.7268 11.5249 18.4361 11.8072 16.1734C11.8072 16.0286 11.921 15.9112 12.0614 15.9112C12.2018 15.9112 12.3156 16.0286 12.3156 16.1734C12.6157 18.4351 12.6127 20.7286 12.3068 22.9895ZM10.7756 17.8774C11.1628 19.6454 10.9884 21.2062 10.7608 23.0078C10.7423 23.1277 10.6421 23.216 10.5243 23.216C10.4065 23.216 10.3063 23.1277 10.2878 23.0078C10.0809 21.2306 9.90945 19.6332 10.273 17.8774C10.273 17.7343 10.3855 17.6183 10.5243 17.6183C10.6631 17.6183 10.7756 17.7343 10.7756 17.8774ZM9.24731 17.6091C9.60203 19.4199 9.48674 20.9532 9.23844 22.77C9.20888 23.0383 8.76253 23.0413 8.73888 22.77C8.51422 20.9806 8.40781 19.4016 8.73001 17.6091C8.74416 17.4728 8.85571 17.3694 8.98866 17.3694C9.12161 17.3694 9.23316 17.4728 9.24731 17.6091ZM7.70428 18.4871C8.07674 19.6881 7.94963 20.6636 7.6895 21.8951C7.67588 22.0217 7.57211 22.1175 7.44859 22.1175C7.32506 22.1175 7.2213 22.0217 7.20768 21.8951C6.98302 20.688 6.89139 19.6912 7.18698 18.4871C7.20114 18.3507 7.31269 18.2474 7.44563 18.2474C7.57858 18.2474 7.69013 18.3507 7.70428 18.4871Z" fill="white"/>
</svg>
