<svg width="36" height="36" viewBox="0 0 36 36" fill="none" xmlns="http://www.w3.org/2000/svg">
<rect width="36" height="36" rx="6" fill="#FF5500"/>
<rect x="0.5" y="0.5" width="35" height="35" rx="5.5" stroke="#F2F2F2" stroke-opacity="0.4"/>
<path d="M29.5648 20.1941C29.4715 21.9067 28.0857 23.239 26.4225 23.2151H18.87C18.5241 23.2117 18.2449 22.9225 18.2433 22.5658V14.1797C18.2321 13.8852 18.3977 13.6138 18.6601 13.4969C18.6601 13.4969 19.3548 13 20.818 13C21.7119 12.9989 22.5893 13.2475 23.3572 13.7194C24.5689 14.4546 25.4266 15.6796 25.722 17.097C25.9826 17.021 26.2522 16.983 26.523 16.9842C27.3437 16.9789 28.1313 17.3178 28.7049 17.9231C29.2785 18.5284 29.5888 19.3482 29.5648 20.1941ZM17.3004 14.7101C17.528 17.5542 17.6935 20.1484 17.3004 22.9834C17.2866 23.1116 17.1816 23.2087 17.0565 23.2087C16.9314 23.2087 16.8263 23.1116 16.8126 22.9834C16.4461 20.1728 16.6057 17.5299 16.8126 14.7101C16.8023 14.6137 16.8464 14.5196 16.9261 14.4681C17.0058 14.4165 17.1071 14.4165 17.1869 14.4681C17.2666 14.5196 17.3107 14.6137 17.3004 14.7101ZM15.7721 22.9864C15.7529 23.1159 15.6449 23.2115 15.5179 23.2115C15.3909 23.2115 15.2829 23.1159 15.2637 22.9864C14.9903 20.561 14.9903 18.111 15.2637 15.6856C15.2777 15.5509 15.388 15.4488 15.5194 15.4488C15.6507 15.4488 15.761 15.5509 15.7751 15.6856C16.0786 18.1092 16.0776 20.5631 15.7721 22.9864ZM14.2409 15.4387C14.4892 18.045 14.6015 20.3801 14.238 22.9804C14.238 23.1201 14.1281 23.2333 13.9926 23.2333C13.8571 23.2333 13.7473 23.1201 13.7473 22.9804C13.3955 20.4136 13.5137 18.0115 13.7473 15.4387C13.7611 15.3089 13.8674 15.2105 13.9941 15.2105C14.1207 15.2105 14.2271 15.3089 14.2409 15.4387ZM12.7067 22.9895C12.6929 23.1209 12.5852 23.2205 12.457 23.2205C12.3287 23.2205 12.2211 23.1209 12.2072 22.9895C11.9249 20.7268 11.9249 18.4361 12.2072 16.1734C12.2072 16.0286 12.321 15.9112 12.4614 15.9112C12.6018 15.9112 12.7156 16.0286 12.7156 16.1734C13.0157 18.4351 13.0127 20.7286 12.7067 22.9895ZM11.1755 17.8774C11.5628 19.6454 11.3884 21.2062 11.1608 23.0078C11.1423 23.1277 11.042 23.216 10.9243 23.216C10.8065 23.216 10.7063 23.1277 10.6878 23.0078C10.4809 21.2306 10.3094 19.6332 10.673 17.8774C10.673 17.7343 10.7855 17.6183 10.9243 17.6183C11.0631 17.6183 11.1755 17.7343 11.1755 17.8774ZM9.6473 17.6091C10.002 19.4199 9.88674 20.9532 9.63843 22.77C9.60887 23.0383 9.16252 23.0413 9.13887 22.77C8.91422 20.9806 8.8078 19.4016 9.13 17.6091C9.14415 17.4728 9.25571 17.3694 9.38865 17.3694C9.5216 17.3694 9.63315 17.4728 9.6473 17.6091ZM8.10428 18.4871C8.47673 19.6881 8.34962 20.6636 8.0895 21.8951C8.07588 22.0217 7.97211 22.1175 7.84858 22.1175C7.72506 22.1175 7.62129 22.0217 7.60767 21.8951C7.38302 20.688 7.29138 19.6912 7.58698 18.4871C7.60113 18.3507 7.71268 18.2474 7.84563 18.2474C7.97857 18.2474 8.09012 18.3507 8.10428 18.4871Z" fill="white"/>
</svg>
