<svg width="36" height="36" viewBox="0 0 36 36" fill="none" xmlns="http://www.w3.org/2000/svg">
<rect width="36" height="36" rx="6" fill="#FE0032"/>
<rect x="0.5" y="0.5" width="35" height="35" rx="5.5" stroke="#F2F2F2" stroke-opacity="0.4"/>
<path d="M28.4808 12.8423C28.2343 11.9203 27.5083 11.1942 26.5863 10.9478C24.9152 10.5 18.2143 10.5 18.2143 10.5C18.2143 10.5 11.5134 10.5 9.84228 10.9478C8.92032 11.1942 8.19418 11.9203 7.94778 12.8423C7.5 14.5134 7.5 18 7.5 18C7.5 18 7.5 21.4866 7.94778 23.1578C8.19418 24.0797 8.92032 24.8058 9.84228 25.0523C11.5134 25.5 18.2143 25.5 18.2143 25.5C18.2143 25.5 24.9152 25.5 26.5863 25.0523C27.5083 24.8058 28.2343 24.0797 28.4808 23.1578C28.9286 21.4866 28.9286 18 28.9286 18C28.9286 18 28.9286 14.5134 28.4808 12.8423Z" fill="white"/>
<path d="M16.0227 21.1656L21.6234 18.0001L16.0227 14.8344V21.1656Z" fill="#FF0000"/>
</svg>
