<svg width="36" height="36" viewBox="0 0 36 36" fill="none" xmlns="http://www.w3.org/2000/svg">
<rect width="36" height="36" rx="6" fill="#FE0032"/>
<rect x="0.5" y="0.5" width="35" height="35" rx="5.5" stroke="#F2F2F2" stroke-opacity="0.4"/>
<path d="M18 8.86957C23.0217 8.86957 27.1304 12.9565 27.1304 18C27.1304 23.0435 23.0435 27.1304 18 27.1304C12.9565 27.1304 8.86957 23.0435 8.86957 18C8.86957 12.9565 12.9783 8.86957 18 8.86957ZM18 8C12.4783 8 8 12.4783 8 18C8 23.5217 12.4783 28 18 28C23.5217 28 28 23.5217 28 18C28 12.4783 23.5217 8 18 8Z" fill="white"/>
<path d="M14.5217 23L23 17.7826L14.5217 13V23Z" fill="white"/>
</svg>
