<svg width="36" height="36" viewBox="0 0 36 36" fill="none" xmlns="http://www.w3.org/2000/svg">
<rect width="36" height="36" rx="18" fill="url(#paint0_linear_30_47)"/>
<rect x="0.5" y="0.5" width="35" height="35" rx="17.5" stroke="#F2F2F2" stroke-opacity="0.4"/>
<path fill-rule="evenodd" clip-rule="evenodd" d="M24.3721 8.00359C24.3011 8.01013 23.6698 8.122 23.5939 8.13752L14.8562 9.90056L14.853 9.90138C14.6251 9.94956 14.4463 10.0304 14.3083 10.1464C14.1417 10.286 14.0494 10.4836 14.0143 10.7139C14.007 10.7629 13.9947 10.8625 13.9947 11.0095C13.9947 11.0095 13.9947 19.9366 13.9947 21.9454C13.9947 22.201 13.9743 22.4493 13.8012 22.6608C13.6281 22.8723 13.4141 22.936 13.1634 22.9866C12.9732 23.025 12.7829 23.0634 12.5926 23.1018C11.8707 23.2471 11.4012 23.3459 10.9758 23.5109C10.5691 23.6685 10.2645 23.8694 10.022 24.1241C9.54098 24.628 9.34581 25.3115 9.41277 25.9517C9.46994 26.498 9.71573 27.0206 10.1379 27.4069C10.4229 27.6682 10.779 27.8666 11.1987 27.9507C11.6339 28.0381 12.0978 28.0079 12.7755 27.8707C13.1365 27.798 13.4746 27.6845 13.7963 27.4943C14.1148 27.3064 14.3875 27.0558 14.6007 26.7503C14.8146 26.4441 14.9526 26.1036 15.0286 25.7418C15.1069 25.3686 15.1257 25.0314 15.1257 24.659V15.1742C15.1257 14.6663 15.2694 14.5323 15.6794 14.4327C15.6794 14.4327 22.9422 12.9677 23.2811 12.9016C23.754 12.8109 23.9769 12.9457 23.9769 13.4413V19.9162C23.9769 20.1726 23.9744 20.4323 23.7997 20.6446C23.6266 20.8561 23.4126 20.9198 23.1619 20.9704C22.9716 21.0088 22.7814 21.0472 22.5911 21.0856C21.8692 21.2309 21.3997 21.3297 20.9742 21.4947C20.5676 21.6523 20.263 21.8532 20.0204 22.108C19.5395 22.6118 19.3271 23.2953 19.3941 23.9355C19.4513 24.4818 19.7142 25.0044 20.1364 25.3907C20.4214 25.652 20.7774 25.8447 21.1972 25.9297C21.6324 26.017 22.0962 25.986 22.774 25.8496C23.135 25.777 23.473 25.6683 23.7948 25.4781C24.1133 25.2903 24.386 25.0396 24.5991 24.7341C24.8131 24.4279 24.9511 24.0874 25.027 23.7256C25.1054 23.3525 25.1087 23.0152 25.1087 22.6428V8.7761C25.1103 8.27307 24.8449 7.96276 24.3721 8.00359Z" fill="white"/>
<defs>
<linearGradient id="paint0_linear_30_47" x1="18" y1="35.8613" x2="18" y2="0.775876" gradientUnits="userSpaceOnUse">
<stop stop-color="#FA233B"/>
<stop offset="1" stop-color="#FB5C74"/>
</linearGradient>
</defs>
</svg>
