<svg width="36" height="36" viewBox="0 0 36 36" fill="none" xmlns="http://www.w3.org/2000/svg">
<rect width="36" height="36" rx="18" fill="#0D0D0D"/>
<rect x="0.5" y="0.5" width="35" height="35" rx="17.5" stroke="#F2F2F2" stroke-opacity="0.05"/>
<path fill-rule="evenodd" clip-rule="evenodd" d="M7.48858 17.4761C7.48858 17.4761 7.96255 17.3998 8.15788 17.5979C8.35391 17.7953 8.22509 18.2049 7.96605 18.2112C7.70631 18.2182 7.46688 18.2644 7.29606 18.0894C7.25196 18.0414 7.22128 17.9827 7.20709 17.9191C7.1929 17.8555 7.1957 17.7893 7.21522 17.7271C7.23473 17.665 7.27027 17.609 7.31826 17.565C7.36624 17.5209 7.42499 17.4902 7.48858 17.4761ZM12.4915 20.2177C12.152 19.7584 12.0294 18.1895 11.8726 18.0964C11.7116 17.999 11.1249 18.9652 9.95994 18.8616C9.47197 18.8182 8.9763 18.5115 8.68435 18.3001C8.71166 17.9437 8.71586 17.1113 9.44186 17.3816C9.88293 17.5461 10.6383 17.9976 11.3013 17.1869C12.0343 16.2901 12.439 16.5505 12.6812 16.7459C12.9242 16.9405 12.7624 17.9542 13.1237 17.6707C13.4856 17.3879 14.9461 15.6278 14.9461 15.6278C14.9461 15.6278 16.0767 14.523 16.2496 15.6838C16.4226 16.846 17.1598 18.1321 17.3558 18.0957C17.5511 18.0593 19.8251 13.5807 20.1513 13.2923C20.4768 13.0031 21.5732 13.0409 21.5214 13.7823C21.4696 14.5237 21.3576 19.1304 21.3576 19.1304C21.3576 19.1304 21.2288 20.4284 21.4381 19.7346C21.5256 19.4469 21.6187 19.1871 21.7349 18.8847C22.2964 17.1435 23.2527 14.1702 23.7288 12.6377L24.006 11.7135C24.0341 11.6015 24.0628 11.5126 24.0915 11.4335C24.1314 11.3033 24.158 11.2172 24.1664 11.1955C24.1874 11.1374 24.2476 11.094 24.3316 11.0618C24.4156 11.0106 24.5059 11.0078 24.6081 11.0057C24.9147 10.9858 25.2224 11.0178 25.5183 11.1003C25.6181 11.1043 25.7146 11.1371 25.7962 11.1948L25.8095 11.2032L25.8158 11.2074C25.8476 11.2304 25.8765 11.2572 25.9019 11.2872L25.9054 11.2914C25.9215 11.3115 25.9365 11.3326 25.9502 11.3544C26.1211 11.5966 26.2261 12.044 26.1211 12.8372C25.8585 14.8171 25.6555 18.8903 25.6555 18.8903C25.6555 18.8903 25.6149 19.0849 26.0363 18.2273C26.051 18.1972 26.0699 18.1713 26.0874 18.144C26.1176 18.1242 26.1445 18.0999 26.1673 18.0719C26.427 17.7708 27.1264 17.5951 27.6123 17.5986C27.8167 17.6224 27.9882 17.6721 28.0904 17.7351C28.2816 18.0172 28.1688 19.059 28.1688 19.059C27.7649 19.0954 26.9955 19.3054 26.7231 19.3446C26.4501 19.3831 26.0356 21.0991 25.4602 20.9241C24.884 20.7483 23.6007 19.9684 23.6007 19.8613C23.6007 19.7682 23.7015 18.6277 23.7281 18.3337L23.733 18.2763L23.7337 18.2644C23.7526 18.0334 23.7358 17.9318 23.6252 18.1629C23.5307 18.3617 23.1169 19.6345 22.6563 21.0207C22.6072 21.1418 21.7363 23.6958 21.6215 24.0073C21.485 24.3686 21.3709 24.6451 21.2918 24.7879C21.1706 24.9461 21.0082 25.0456 20.7814 24.979C20.2157 24.8131 19.4995 24.0556 19.4925 23.868C19.4785 22.808 19.5457 17.1085 19.2804 17.5839C19.008 18.0705 16.8909 21.4505 16.8909 21.4505C16.8559 21.4561 16.8293 21.4547 16.7985 21.4575C16.6487 21.4421 16.4163 21.3945 16.3519 21.2559L16.3407 21.2314L16.3288 21.1971C16.3007 21.1047 16.2881 21.0032 16.2629 20.9206C16.1354 20.5167 16.0003 20.1152 15.8576 19.7164C15.6139 18.9463 15.3633 18.1587 15.322 18.0719C15.2408 17.9017 15.1232 17.9738 15.0175 18.0719C14.5449 18.4604 13.5417 20.1736 12.635 20.2674C12.5895 20.2723 12.5412 20.252 12.4915 20.2177Z" fill="url(#paint0_linear_30_24)"/>
<defs>
<linearGradient id="paint0_linear_30_24" x1="6.69809" y1="18" x2="28.2019" y2="18" gradientUnits="userSpaceOnUse">
<stop stop-color="#FFA200"/>
<stop offset="1" stop-color="#E39000"/>
</linearGradient>
</defs>
</svg>
