<svg width="36" height="36" viewBox="0 0 36 36" fill="none" xmlns="http://www.w3.org/2000/svg">
<rect width="36" height="36" rx="18" fill="#1F1F30"/>
<rect x="0.5" y="0.5" width="35" height="35" rx="17.5" stroke="#F2F2F2" stroke-opacity="0.05"/>
<path d="M11.9189 15.3684C9.27498 15.524 7.2553 17.8319 7.40813 20.524C7.54803 22.9991 9.48807 24.9745 11.9189 25.117C12.0502 25.1316 12.1678 25.0359 12.1829 24.9022C12.1836 24.8927 12.1843 24.8832 12.1843 24.8737V15.6117C12.1843 15.4758 12.076 15.3655 11.9425 15.3655M17.0165 15.3662C14.3726 15.5219 12.3529 17.8297 12.5057 20.5218C12.6457 22.9969 14.5857 24.9723 17.0165 25.1148C17.1478 25.1294 17.2654 25.0337 17.2805 24.9C17.2812 24.8905 17.2819 24.881 17.2819 24.8715V15.6117C17.2819 15.4758 17.1736 15.3655 17.0401 15.3655M22.9442 15.6358V25.0059C22.9428 25.0848 23.0045 25.1506 23.082 25.1521C23.0834 25.1521 23.0855 25.1521 23.087 25.1521C25.7344 25.0768 27.8201 22.8311 27.7469 20.1361C27.6773 17.5886 25.6957 15.524 23.196 15.3955C23.064 15.3955 22.9571 15.5043 22.9571 15.6387C22.9571 15.6395 22.9571 15.6402 22.9571 15.6417M17.6421 10.7374V20.1777C17.6392 20.2113 17.6392 20.2442 17.6421 20.2778C18.0324 24.7174 21.5509 25.117 22.32 25.1411C22.3961 25.1469 22.4621 25.0892 22.4685 25.0118C22.4685 25.0074 22.4685 25.0023 22.4685 24.9979V15.3063C22.1586 11.194 18.8575 10.5891 17.9025 10.5H17.8789C17.7483 10.5 17.6428 10.6074 17.6428 10.7404" fill="#40BCD0"/>
<path d="M29.4 24.0664C29.4014 24.6502 28.9379 25.1243 28.3654 25.1258C27.7921 25.1272 27.3265 24.6553 27.3251 24.0723C27.3236 23.4886 27.7871 23.0144 28.3597 23.013C28.3604 23.013 28.3611 23.013 28.3625 23.013C28.9344 23.013 29.3986 23.4842 29.4 24.0664Z" fill="#40BCD0"/>
</svg>
