<svg width="36" height="36" viewBox="0 0 36 36" fill="none" xmlns="http://www.w3.org/2000/svg">
<rect width="36" height="36" rx="18" fill="#191414"/>
<rect x="0.5" y="0.5" width="35" height="35" rx="17.5" stroke="#F2F2F2" stroke-opacity="0.05"/>
<path d="M23.9154 16.8652C20.6919 14.9509 15.3749 14.7749 12.2978 15.7088C11.8036 15.8588 11.281 15.5797 11.1313 15.0857C10.9815 14.5912 11.2602 14.069 11.7547 13.9188C15.2871 12.8466 21.1592 13.0537 24.8701 15.2565C25.3145 15.5204 25.4603 16.0944 25.1969 16.5381C24.9332 16.9826 24.3587 17.1291 23.9154 16.8652ZM23.8098 19.7006C23.5836 20.0675 23.1038 20.1826 22.7373 19.9573C20.05 18.3054 15.9521 17.8269 12.7727 18.7919C12.3604 18.9165 11.925 18.6841 11.7997 18.2725C11.6755 17.8603 11.9081 17.4256 12.3196 17.3002C15.9516 16.1981 20.4667 16.7319 23.5533 18.6287C23.9198 18.8544 24.0351 19.3344 23.8098 19.7006ZM22.5862 22.4235C22.4065 22.7183 22.0228 22.8106 21.7291 22.6309C19.3809 21.1957 16.4251 20.8716 12.9443 21.6667C12.6088 21.7436 12.2745 21.5334 12.198 21.198C12.1212 20.8627 12.3306 20.5283 12.6668 20.4518C16.476 19.581 19.7436 19.9558 22.3793 21.5664C22.6732 21.7459 22.7658 22.1298 22.5862 22.4235ZM18 8C12.4772 8 8 12.4772 8 17.9999C8 23.5232 12.4772 28 18 28C23.523 28 28 23.5232 28 17.9999C28 12.4772 23.523 8 18 8Z" fill="#1ED760"/>
</svg>
