<svg width="36" height="36" viewBox="0 0 36 36" fill="none" xmlns="http://www.w3.org/2000/svg">
<rect width="36" height="36" rx="18" fill="#151515"/>
<rect x="0.5" y="0.5" width="35" height="35" rx="17.5" stroke="#F2F2F2" stroke-opacity="0.05"/>
<path d="M16.03 15.8919V15.0925C15.7559 15.0532 15.4818 15.0369 15.2077 15.0336C11.8358 15.0336 9.09464 17.7527 9.09464 21.0975C9.09464 23.0762 10.0689 24.9304 11.7037 26.0639C10.6865 24.9795 10.0821 23.5282 10.0821 21.9328C10.0755 18.6503 12.7208 15.9672 16.03 15.8919Z" fill="#25F4EE"/>
<path d="M16.172 24.724C17.6747 24.724 18.9198 23.5184 18.9759 22.0409L18.9891 8.85504H21.4L21.3967 8.83538C21.3439 8.5602 21.3174 8.27846 21.3174 8H17.9984L17.9918 21.2056C17.9389 22.7322 16.6476 23.9246 15.1119 23.8722C14.6925 23.8591 14.283 23.751 13.9098 23.5545C14.4184 24.249 15.244 24.724 16.172 24.724Z" fill="#25F4EE"/>
<path d="M25.941 13.3563V12.5831C25.046 12.5831 24.1708 12.3243 23.4245 11.8395C24.0718 12.5766 24.9469 13.1433 25.941 13.3563Z" fill="#25F4EE"/>
<path d="M23.4245 11.8395C22.6913 11.0074 22.2884 9.9394 22.2884 8.83211H21.3835C21.618 10.0901 22.3842 11.1679 23.4245 11.8395Z" fill="#FE2C55"/>
<path d="M15.2044 18.303C13.6654 18.303 12.3939 19.5708 12.3939 21.0975C12.3939 22.1622 13.0214 23.086 13.9098 23.5479C13.0082 22.3096 13.2889 20.5831 14.534 19.6855C15.0095 19.3448 15.5842 19.1613 16.1721 19.1613C16.4528 19.1613 16.7302 19.2039 16.9977 19.2891V15.9312C16.7236 15.8919 16.4495 15.8722 16.1721 15.8722C16.1225 15.8722 16.0763 15.8755 16.0267 15.8755H16.0135L16.0069 18.4242C15.7493 18.3423 15.4785 18.303 15.2044 18.303Z" fill="#FE2C55"/>
<path d="M25.941 13.317L25.9245 13.3137V15.8591C24.2633 15.8559 22.645 15.335 21.2976 14.3685V21.1007C21.3009 24.4357 18.5796 27.145 15.2143 27.1482C15.211 27.1482 15.2077 27.1482 15.2011 27.1482C13.8966 27.1482 12.6911 26.7584 11.6971 26.0671C12.8496 27.3022 14.4712 28.0033 16.1687 28C19.5406 28 22.2851 25.2809 22.2851 21.9361V15.24C23.6325 16.1998 25.2475 16.7174 26.9053 16.7142V13.4185C26.585 13.4185 26.2613 13.3825 25.941 13.317Z" fill="#FE2C55"/>
<path d="M21.3207 21.1007V14.4013C22.6682 15.3612 24.2831 15.8788 25.941 15.8755V13.3137C24.9634 13.104 24.0784 12.5864 23.4244 11.8362C22.3643 11.1515 21.6312 10.0639 21.3967 8.82883H18.966L18.9627 22.0409C18.9098 23.5676 17.6185 24.76 16.0796 24.7076C15.2143 24.6781 14.4151 24.2522 13.9131 23.5545C12.5458 22.8468 12.0207 21.1728 12.7341 19.8165C13.2162 18.9025 14.1674 18.3325 15.2077 18.3325C15.4884 18.3325 15.7658 18.3751 16.0333 18.4603V15.8755C12.7275 15.9509 10.0623 18.6405 10.0623 21.9361C10.0623 23.4693 10.6468 24.9468 11.7037 26.0671C12.7308 26.7846 13.9527 27.1679 15.2077 27.1679C18.5763 27.1646 21.3207 24.4455 21.3207 21.1007Z" fill="white"/>
</svg>
