<svg width="36" height="36" viewBox="0 0 36 36" fill="none" xmlns="http://www.w3.org/2000/svg">
<rect width="36" height="36" rx="18" fill="#1DA1F2"/>
<rect x="0.5" y="0.5" width="35" height="35" rx="17.5" stroke="#F2F2F2" stroke-opacity="0.4"/>
<path d="M27.9608 11.935C27.2244 12.2601 26.4371 12.4794 25.6067 12.5813C26.4528 12.0721 27.103 11.2691 27.4085 10.3134C26.6173 10.7756 25.736 11.1124 24.8038 11.3004C24.0556 10.5014 22.9941 10 21.8112 10C19.5472 10 17.7101 11.8371 17.7101 14.0971C17.7101 14.4222 17.7493 14.7356 17.8159 15.0333C14.4081 14.8727 11.3843 13.2354 9.3631 10.7599C9.00666 11.3631 8.80689 12.0603 8.80689 12.8241C8.80689 14.2499 9.53153 15.5033 10.6322 16.2397C9.95848 16.2162 9.32785 16.0321 8.77556 15.7266V15.7775C8.77556 17.7673 10.1857 19.4242 12.0658 19.8002C11.7211 19.8942 11.3568 19.9412 10.9847 19.9412C10.7223 19.9412 10.4716 19.9177 10.2209 19.8707C10.7458 21.5002 12.2577 22.687 14.0595 22.7184C12.6612 23.819 10.8829 24.4732 8.97532 24.4732C8.65022 24.4732 8.32511 24.4536 8 24.4183C9.8253 25.5817 11.9757 26.2593 14.2985 26.2593C21.8386 26.2593 25.9632 20.0117 25.9632 14.6024C25.9632 14.4301 25.9632 14.2538 25.9514 14.0776C26.7505 13.5018 27.4516 12.7771 28 11.9546L27.9608 11.935Z" fill="white"/>
</svg>
