<svg width="36" height="36" viewBox="0 0 36 36" fill="none" xmlns="http://www.w3.org/2000/svg">
<rect width="36" height="36" rx="18" fill="#FE0032"/>
<rect x="0.5" y="0.5" width="35" height="35" rx="17.5" stroke="#F2F2F2" stroke-opacity="0.4"/>
<path d="M18.4 8.86957C23.4217 8.86957 27.5304 12.9565 27.5304 18C27.5304 23.0435 23.4435 27.1304 18.4 27.1304C13.3565 27.1304 9.26956 23.0435 9.26956 18C9.26956 12.9565 13.3783 8.86957 18.4 8.86957ZM18.4 8C12.8783 8 8.39999 12.4783 8.39999 18C8.39999 23.5217 12.8783 28 18.4 28C23.9217 28 28.4 23.5217 28.4 18C28.4 12.4783 23.9217 8 18.4 8Z" fill="white"/>
<path d="M14.9217 23L23.4 17.7826L14.9217 13V23Z" fill="white"/>
</svg>
