<svg width="512" height="512" viewBox="0 0 512 512" fill="none" xmlns="http://www.w3.org/2000/svg">
<path d="M181.544 42.6668H330.453C335.413 42.6656 339.215 42.6647 342.539 42.9898C366.172 45.3017 385.517 59.511 393.72 78.6513H118.278C126.481 59.511 145.825 45.3017 169.459 42.9898C172.782 42.6647 176.585 42.6656 181.544 42.6668Z" fill="white"/>
<path d="M134.625 100.76C104.958 100.76 80.6324 118.674 72.5144 142.441C72.3453 142.936 72.1829 143.434 72.0278 143.934C80.5217 141.362 89.3616 139.682 98.3101 138.535C121.358 135.58 150.485 135.581 184.321 135.583H331.352C365.186 135.581 394.315 135.58 417.364 138.535C426.311 139.682 435.151 141.362 443.644 143.934C443.49 143.434 443.328 142.936 443.158 142.441C435.04 118.674 410.714 100.76 381.048 100.76H134.625Z" fill="white"/>
<path d="M240 362.667C240 353.83 232.837 346.667 224 346.667C215.164 346.667 208 353.83 208 362.667C208 371.503 215.164 378.667 224 378.667C232.837 378.667 240 371.503 240 362.667Z" fill="white"/>
<path fill-rule="evenodd" clip-rule="evenodd" d="M185.011 160.897H326.989C398.985 160.897 434.983 160.897 455.205 181.949C475.424 203.001 470.667 235.528 461.152 300.578L452.128 362.263C444.666 413.278 440.937 438.784 421.797 454.059C402.656 469.333 374.426 469.333 317.965 469.333H194.034C137.575 469.333 109.345 469.333 90.2049 454.059C71.0649 438.784 67.3339 413.278 59.8719 362.263L50.8485 300.578C41.3332 235.526 36.5757 203.002 56.7965 181.949C77.0173 160.897 113.015 160.897 185.011 160.897ZM272 224C272 215.164 264.837 208 256 208C247.164 208 240 215.164 240 224V317.397C234.996 315.629 229.611 314.667 224 314.667C197.491 314.667 176 336.158 176 362.667C176 389.175 197.491 410.667 224 410.667C250.509 410.667 272 389.175 272 362.667V284.154C286.298 295.752 304.25 304 320 304C328.837 304 336 296.836 336 288C336 279.164 328.837 272 320 272C313.485 272 301.11 267.336 289.782 257.286C278.729 247.479 272 235.49 272 224Z" fill="white"/>
</svg>
