<svg width="512" height="512" viewBox="0 0 512 512" fill="none" xmlns="http://www.w3.org/2000/svg">
<path d="M178.172 431.825C196.115 454.635 224.303 469.333 256 469.333C287.697 469.333 315.885 454.635 333.828 431.825C282.163 438.827 229.837 438.827 178.172 431.825Z" fill="white"/>
<path d="M399.981 192V207.021C399.981 225.047 405.126 242.671 414.767 257.668L438.391 294.426C459.972 327.998 443.499 373.63 405.965 384.247C307.782 412.019 204.218 412.019 106.034 384.247C68.5024 373.63 52.0282 327.998 73.6077 294.426L97.2331 257.668C106.874 242.671 112.019 225.047 112.019 207.021V192C112.019 109.526 176.481 42.6667 256 42.6667C335.518 42.6667 399.981 109.526 399.981 192Z" fill="white"/>
</svg>
