<svg width="512" height="512" viewBox="0 0 512 512" fill="none" xmlns="http://www.w3.org/2000/svg">
<path d="M298.667 85.3333H213.333C132.88 85.3333 92.6538 85.3333 67.6601 110.327C49.6646 128.322 44.6261 154.215 43.2153 197.333H468.785C467.375 154.215 462.336 128.322 444.339 110.327C419.347 85.3333 379.119 85.3333 298.667 85.3333Z" fill="white"/>
<path d="M469.292 229.334C469.333 237.697 469.333 246.574 469.333 256.001C469.333 336.453 469.333 376.681 444.339 401.673C419.347 426.667 379.118 426.667 298.666 426.667H213.333C132.88 426.667 92.653 426.667 67.6593 401.673C42.6662 376.681 42.6661 336.453 42.6661 256.001C42.6661 246.574 42.6659 237.697 42.7062 229.334H469.292ZM128 325.334C119.164 325.334 112 332.498 112 341.334C112 350.17 119.164 357.334 128 357.334H213.333C222.169 357.334 229.333 350.17 229.333 341.334C229.333 332.498 222.169 325.334 213.333 325.334H128ZM266.666 325.334C257.83 325.334 250.666 332.498 250.666 341.334C250.666 350.17 257.83 357.334 266.666 357.334H298.666C307.502 357.334 314.666 350.17 314.666 341.334C314.666 332.498 307.502 325.334 298.666 325.334H266.666Z" fill="white"/>
</svg>
