<svg width="512" height="512" viewBox="0 0 512 512" fill="none" xmlns="http://www.w3.org/2000/svg">
<path fill-rule="evenodd" clip-rule="evenodd" d="M469.333 256C469.333 373.82 373.82 469.333 256 469.333C138.179 469.333 42.6667 373.82 42.6667 256C42.6667 138.179 138.179 42.6667 256 42.6667C373.82 42.6667 469.333 138.179 469.333 256ZM341.98 191.353C348.228 197.601 348.228 207.732 341.98 213.98L235.313 320.646C229.065 326.895 218.936 326.895 212.686 320.646L170.02 277.98C163.771 271.731 163.771 261.602 170.02 255.354C176.268 249.105 186.399 249.105 192.647 255.354L224 286.705L271.676 239.029L319.354 191.353C325.602 185.105 335.731 185.105 341.98 191.353Z" fill="white"/>
</svg>
