<svg width="512" height="512" viewBox="0 0 512 512" fill="none" xmlns="http://www.w3.org/2000/svg">
<path d="M256 42.6661C373.819 42.6661 469.333 138.179 469.333 256C469.333 373.82 373.819 469.333 256 469.333C138.179 469.333 42.6666 373.82 42.6665 256C42.6665 138.179 138.179 42.6663 256 42.6661ZM256 154.667C247.163 154.667 240 161.831 240 170.667V256C240 260.243 241.685 264.313 244.687 267.313L298.02 320.647C304.268 326.895 314.397 326.895 320.646 320.647C326.895 314.398 326.894 304.269 320.646 298.021L272 249.372V170.667C272 161.831 264.836 154.667 256 154.667Z" fill="white"/>
</svg>
