<svg width="512" height="512" viewBox="0 0 512 512" fill="none" xmlns="http://www.w3.org/2000/svg">
<path d="M384 170.667C384 194.231 364.898 213.333 341.333 213.333C317.768 213.333 298.667 194.231 298.667 170.667C298.667 147.103 317.768 128 341.333 128C364.898 128 384 147.103 384 170.667Z" fill="white"/>
<path fill-rule="evenodd" clip-rule="evenodd" d="M254.775 26.6667H257.224C306.47 26.6665 345.062 26.6662 375.174 30.7147C405.995 34.8585 430.317 43.5057 449.406 62.595C468.495 81.6843 477.141 106.005 481.286 136.826C485.333 166.937 485.333 205.53 485.333 254.775V256.659C485.333 297.38 485.333 330.716 483.121 357.856C480.9 385.133 476.346 407.923 466.152 426.852C461.655 435.202 456.132 442.679 449.406 449.406C430.317 468.495 405.995 477.141 375.174 481.286C345.062 485.333 306.47 485.333 257.224 485.333H254.775C205.53 485.333 166.937 485.333 136.826 481.286C106.005 477.141 81.6842 468.495 62.5949 449.406C45.6716 432.482 36.9322 411.418 32.2848 385.289C27.7194 359.622 26.8842 327.686 26.7108 288.032C26.6666 277.946 26.6666 267.277 26.6666 256.021V254.775C26.6664 205.53 26.6662 166.937 30.7146 136.826C34.8584 106.005 43.5057 81.6843 62.5949 62.595C81.6842 43.5057 106.005 34.8585 136.826 30.7147C166.937 26.6662 205.53 26.6665 254.775 26.6667ZM141.09 62.4292C113.817 66.096 97.3749 73.0697 85.2224 85.2224C73.0696 97.3749 66.096 113.817 62.4292 141.09C58.7005 168.823 58.6666 205.265 58.6666 256C58.6666 262.197 58.6666 268.192 58.6739 273.995L80.0315 255.307C99.472 238.298 128.772 239.273 147.037 257.538L238.551 349.052C253.212 363.714 276.29 365.713 293.254 353.79L299.616 349.321C324.026 332.164 357.052 334.153 379.23 354.112L439.612 408.454C445.69 395.691 449.299 378.918 451.228 355.258C453.32 329.562 453.333 297.513 453.333 256C453.333 205.265 453.299 168.823 449.57 141.09C445.905 113.817 438.931 97.3749 426.778 85.2224C414.624 73.0697 398.182 66.096 370.91 62.4292C343.176 58.7006 306.735 58.6667 256 58.6667C205.265 58.6667 168.823 58.7006 141.09 62.4292Z" fill="white"/>
</svg>
