<svg width="512" height="512" viewBox="0 0 512 512" fill="none" xmlns="http://www.w3.org/2000/svg">
<path d="M240 167.413C220.034 172.873 208 188.193 208 202.667C208 217.142 220.034 232.461 240 237.92V167.413Z" fill="white"/>
<path d="M272 274.08V344.587C291.966 339.128 304 323.808 304 309.333C304 294.859 291.966 279.539 272 274.08Z" fill="white"/>
<path fill-rule="evenodd" clip-rule="evenodd" d="M469.333 256C469.333 373.82 373.82 469.333 256 469.333C138.179 469.333 42.6667 373.82 42.6667 256C42.6667 138.179 138.179 42.6668 256 42.6668C373.82 42.6668 469.333 138.179 469.333 256ZM256 112C264.836 112 272 119.164 272 128V134.757C306.782 140.985 336 167.117 336 202.667C336 211.503 328.836 218.667 320 218.667C311.164 218.667 304 211.503 304 202.667C304 188.193 291.966 172.872 272 167.413V241.423C306.782 247.652 336 273.784 336 309.333C336 344.883 306.782 371.015 272 377.244V384C272 392.836 264.836 400 256 400C247.164 400 240 392.836 240 384V377.244C205.218 371.015 176 344.883 176 309.333C176 300.497 183.164 293.333 192 293.333C200.837 293.333 208 300.497 208 309.333C208 323.808 220.034 339.128 240 344.587V270.577C205.218 264.348 176 238.217 176 202.667C176 167.117 205.218 140.985 240 134.757V128C240 119.164 247.164 112 256 112Z" fill="white"/>
</svg>
