<svg width="512" height="512" viewBox="0 0 512 512" fill="none" xmlns="http://www.w3.org/2000/svg">
<path d="M452.134 59.8663C475.065 82.7996 475.065 119.982 452.134 142.915L441.561 153.487C438.483 152.82 434.607 151.805 430.189 150.273C418.363 146.17 402.822 138.416 388.202 123.797C373.583 109.178 365.83 93.6367 361.728 81.811C360.194 77.3931 359.181 73.5164 358.513 70.438L369.086 59.8663C392.019 36.9332 429.201 36.9332 452.134 59.8663Z" fill="white"/>
<path d="M311.042 284.006C302.423 292.625 298.114 296.934 293.361 300.642C287.757 305.013 281.692 308.762 275.275 311.821C269.835 314.413 264.053 316.339 252.488 320.194L191.511 340.52C185.821 342.417 179.547 340.936 175.305 336.695C171.064 332.452 169.583 326.18 171.48 320.488L191.806 259.511C195.66 247.947 197.587 242.165 200.18 236.725C203.238 230.308 206.986 224.243 211.358 218.639C215.066 213.886 219.375 209.577 227.994 200.958L332.87 96.0821C338.496 110.891 348.358 129.208 365.574 146.425C382.792 163.641 401.109 173.503 415.919 179.13L311.042 284.006Z" fill="white"/>
<path d="M438.091 438.091C469.333 406.85 469.333 356.565 469.333 256C469.333 222.97 469.333 195.365 468.226 172.077L332.501 307.804C325.007 315.3 319.377 320.932 313.041 325.873C305.604 331.676 297.557 336.649 289.041 340.706C281.788 344.164 274.231 346.679 264.177 350.029L201.63 370.878C184.441 376.608 165.49 372.134 152.678 359.322C139.866 346.511 135.392 327.558 141.122 310.37L161.97 247.823C165.32 237.769 167.836 230.212 171.293 222.959C175.351 214.443 180.325 206.396 186.126 198.958C191.068 192.623 196.7 186.993 204.197 179.5L339.923 43.7735C316.636 42.6667 289.03 42.6667 256 42.6667C155.433 42.6667 105.15 42.6667 73.9086 73.9087C42.6666 105.151 42.6666 155.434 42.6666 256C42.6666 356.565 42.6666 406.85 73.9086 438.091C105.15 469.333 155.433 469.333 256 469.333C356.565 469.333 406.85 469.333 438.091 438.091Z" fill="white"/>
</svg>
