<svg width="512" height="512" viewBox="0 0 512 512" fill="none" xmlns="http://www.w3.org/2000/svg">
<path d="M374.991 94.5391L332.324 72.1487C294.871 52.4941 276.145 42.6667 256 42.6667C235.855 42.6667 217.128 52.4941 179.675 72.1487L172.812 75.7504L363.17 184.526L448.86 141.682C435.074 126.069 412.832 114.397 374.991 94.5391Z" fill="white"/>
<path d="M463.966 169.906L378.667 212.555V277.333C378.667 286.169 371.503 293.333 362.667 293.333C353.83 293.333 346.667 286.169 346.667 277.333V228.555L272 265.888V467.285C287.315 463.471 304.742 454.325 332.324 439.851L374.991 417.461C420.894 393.372 443.844 381.329 456.589 359.686C469.333 338.044 469.333 311.11 469.333 257.248V254.752C469.333 214.376 469.333 189.132 463.966 169.906Z" fill="white"/>
<path d="M240 467.285V265.888L48.0349 169.906C42.6666 189.132 42.6666 214.376 42.6666 254.752V257.248C42.6666 311.11 42.6666 338.044 55.4111 359.686C68.1554 381.329 91.1065 393.372 137.009 417.461L179.675 439.851C207.258 454.325 224.685 463.471 240 467.285Z" fill="white"/>
<path d="M63.1399 141.681L256 238.112L328.772 201.726L139.19 93.394L137.009 94.5389C99.1689 114.396 76.9257 126.069 63.1399 141.681Z" fill="white"/>
</svg>
