<svg width="512" height="512" viewBox="0 0 512 512" fill="none" xmlns="http://www.w3.org/2000/svg">
<path d="M42.6665 258.645C42.6665 139.364 138.179 42.6668 255.998 42.6668C373.82 42.6668 469.331 139.364 469.331 258.645V370.507C469.337 387.934 469.342 399.885 466.278 410.377C460.288 430.895 445.965 447.866 426.88 457.056C417.12 461.758 405.459 463.616 388.454 466.328L385.683 466.771C379.635 467.738 374.468 468.563 370.18 468.99C365.719 469.434 361.171 469.57 356.518 468.642C341.209 465.589 328.584 454.669 323.217 439.834C321.587 435.326 321.011 430.754 320.746 426.225C320.495 421.873 320.495 416.576 320.495 410.379L320.493 321.368C320.482 312.29 320.473 304.48 322.549 297.792C327.3 282.488 339.708 270.88 355.151 267.29C361.901 265.72 369.591 266.345 378.528 267.07L380.516 267.23L382.859 267.418C399.577 268.747 411.016 269.658 420.727 273.293C427.552 275.849 433.879 279.367 439.565 283.682V258.645C439.565 156.008 357.378 72.8036 255.998 72.8036C154.619 72.8036 72.4338 156.008 72.4338 258.645V283.682C78.1174 279.367 84.4463 275.849 91.27 273.293C100.98 269.658 112.419 268.747 129.138 267.418L131.481 267.23L133.47 267.07C142.407 266.345 150.097 265.72 156.848 267.29C172.29 270.88 184.697 282.488 189.448 297.792C191.525 304.48 191.516 312.29 191.504 321.368L191.503 410.379C191.503 416.576 191.503 421.873 191.25 426.225C190.987 430.754 190.41 435.326 188.78 439.834C183.414 454.669 170.789 465.589 155.48 468.642C150.827 469.57 146.277 469.434 141.817 468.99C137.53 468.563 132.362 467.738 126.315 466.771L123.542 466.328C106.538 463.616 94.8771 461.758 85.1179 457.056C66.0338 447.866 51.7093 430.895 45.7189 410.377C43.1928 401.726 42.7527 392.081 42.6793 379.194L42.6665 375.047V258.645Z" fill="white"/>
<path fill-rule="evenodd" clip-rule="evenodd" d="M255.998 122.667C264.836 122.667 271.998 129.83 271.998 138.667V245.333C271.998 254.17 264.836 261.333 255.998 261.333C247.162 261.333 239.998 254.17 239.998 245.333V138.667C239.998 129.83 247.162 122.667 255.998 122.667Z" fill="white"/>
<path fill-rule="evenodd" clip-rule="evenodd" d="M319.998 154.667C328.836 154.667 335.998 161.83 335.998 170.667V213.333C335.998 222.17 328.836 229.333 319.998 229.333C311.162 229.333 303.998 222.17 303.998 213.333V170.667C303.998 161.83 311.162 154.667 319.998 154.667Z" fill="white"/>
<path fill-rule="evenodd" clip-rule="evenodd" d="M191.999 154.667C200.835 154.667 207.999 161.83 207.999 170.667V213.333C207.999 222.17 200.835 229.333 191.999 229.333C183.162 229.333 175.999 222.17 175.999 213.333V170.667C175.999 161.83 183.162 154.667 191.999 154.667Z" fill="white"/>
</svg>
