<svg width="512" height="512" viewBox="0 0 512 512" fill="none" xmlns="http://www.w3.org/2000/svg">
<path fill-rule="evenodd" clip-rule="evenodd" d="M49.821 167.999C38.2912 192.049 42.3385 220.177 50.4333 276.435L56.3804 317.764C66.7784 390.031 71.9776 426.163 97.0457 447.748C122.114 469.333 158.877 469.333 232.403 469.333H279.597C353.122 469.333 389.886 469.333 414.954 447.748C440.021 426.163 445.22 390.031 455.62 317.764L461.566 276.435C469.662 220.177 473.709 192.049 462.178 167.999C450.649 143.949 426.107 129.33 377.026 100.092L347.481 82.4931C302.912 55.9421 280.625 42.6666 256 42.6666C231.375 42.6666 209.089 55.9421 164.517 82.4931L134.974 100.092C85.8918 129.33 61.3508 143.949 49.821 167.999ZM256 400C247.163 400 240 392.836 240 384V320C240 311.164 247.163 304 256 304C264.836 304 272 311.164 272 320V384C272 392.836 264.836 400 256 400Z" fill="white"/>
</svg>
