<svg width="512" height="512" viewBox="0 0 512 512" fill="none" xmlns="http://www.w3.org/2000/svg">
<path d="M362.667 256C362.667 314.91 314.91 362.667 256 362.667C197.09 362.667 149.333 314.91 149.333 256C149.333 197.09 197.09 149.333 256 149.333C314.91 149.333 362.667 197.09 362.667 256Z" fill="white"/>
<path fill-rule="evenodd" clip-rule="evenodd" d="M256 26.6666C264.836 26.6666 272 33.8301 272 42.6666V85.3333C272 94.1698 264.836 101.333 256 101.333C247.164 101.333 240 94.1698 240 85.3333V42.6666C240 33.8301 247.164 26.6666 256 26.6666ZM78.2645 79.2765C84.2272 72.7549 94.3478 72.3018 100.869 78.2645L148.272 121.605C154.794 127.568 155.247 137.688 149.284 144.21C143.322 150.731 133.201 151.184 126.679 145.222L79.2766 101.881C72.755 95.9187 72.3019 85.7981 78.2645 79.2765ZM433.737 79.2765C439.699 85.7981 439.245 95.9187 432.723 101.881L385.321 145.222C378.799 151.184 368.678 150.731 362.716 144.21C356.753 137.688 357.205 127.568 363.727 121.605L411.132 78.2645C417.653 72.3018 427.772 72.7549 433.737 79.2765ZM26.6667 256C26.6667 247.164 33.8302 240 42.6667 240H85.3334C94.1698 240 101.333 247.164 101.333 256C101.333 264.836 94.1698 272 85.3334 272H42.6667C33.8302 272 26.6667 264.836 26.6667 256ZM410.667 256C410.667 247.164 417.83 240 426.667 240H469.333C478.17 240 485.333 247.164 485.333 256C485.333 264.836 478.17 272 469.333 272H426.667C417.83 272 410.667 264.836 410.667 256ZM363.211 363.204C369.459 356.956 379.59 356.956 385.839 363.204L433.242 410.613C439.49 416.862 439.488 426.993 433.239 433.242C426.991 439.49 416.86 439.488 410.613 433.239L363.211 385.83C356.962 379.582 356.962 369.453 363.211 363.204ZM148.793 363.206C155.041 369.455 155.041 379.586 148.793 385.835L101.385 433.242C95.1371 439.49 85.0065 439.49 78.758 433.242C72.5097 426.993 72.5097 416.862 78.758 410.615L126.166 363.206C132.414 356.958 142.544 356.958 148.793 363.206ZM256 410.667C264.836 410.667 272 417.83 272 426.667V469.333C272 478.17 264.836 485.333 256 485.333C247.164 485.333 240 478.17 240 469.333V426.667C240 417.83 247.164 410.667 256 410.667Z" fill="white"/>
</svg>
