<svg width="512" height="512" viewBox="0 0 512 512" fill="none" xmlns="http://www.w3.org/2000/svg">
<path fill-rule="evenodd" clip-rule="evenodd" d="M112 214.498V170.667C112 91.1378 176.471 26.6668 256 26.6668C335.529 26.6668 400 91.1378 400 170.667V214.498C423.782 216.275 439.268 220.757 450.588 232.079C469.333 250.825 469.333 280.994 469.333 341.333C469.333 401.673 469.333 431.842 450.588 450.588C431.842 469.333 401.673 469.333 341.333 469.333H170.667C110.327 469.333 80.1571 469.333 61.4119 450.588C42.6667 431.842 42.6667 401.673 42.6667 341.333C42.6667 280.994 42.6667 250.825 61.4119 232.079C72.732 220.757 88.2187 216.275 112 214.498ZM144 170.667C144 108.811 194.144 58.6668 256 58.6668C317.856 58.6668 368 108.811 368 170.667V213.41C359.829 213.333 350.965 213.333 341.333 213.333H170.667C161.035 213.333 152.171 213.333 144 213.41V170.667Z" fill="white"/>
</svg>
