<svg width="512" height="512" viewBox="0 0 512 512" fill="none" xmlns="http://www.w3.org/2000/svg">
<path d="M215.273 255.209L413.09 184.125V302.308C401.336 295.548 387.358 291.627 372.363 291.627C330.59 291.627 296.728 322.048 296.728 359.573C296.728 397.099 330.59 427.52 372.363 427.52C414.136 427.52 448 397.099 448 359.573V159.837C448 135.944 448 115.906 446.129 99.9408C445.865 97.6844 445.551 95.4412 445.206 93.3482C443.403 82.4409 440.218 72.2657 434.07 63.7691C430.993 59.5206 427.179 55.6919 422.426 52.4008C421.534 51.7838 420.608 51.1856 419.65 50.6071L419.458 50.4917C403 40.6514 384.497 41.3552 365.436 45.7185C347.002 49.9385 324.147 58.532 296.124 69.0696L247.388 87.3934C234.253 92.3321 223.123 96.5162 214.387 100.85C205.094 105.461 197.088 110.899 191.084 119.003C185.081 127.108 182.587 135.841 181.44 145.323C180.363 154.235 180.363 165.073 180.364 177.865V344.122C168.608 337.361 154.632 333.44 139.637 333.44C97.8637 333.44 64.0002 363.861 64.0002 401.387C64.0002 438.912 97.8637 469.333 139.637 469.333C181.409 469.333 215.273 438.912 215.273 401.387V255.209Z" fill="white"/>
</svg>
