<svg width="512" height="512" viewBox="0 0 512 512" fill="none" xmlns="http://www.w3.org/2000/svg">
<path d="M42.6667 128C42.6667 87.7734 42.6667 67.6602 55.1635 55.1635C67.6602 42.6667 87.7735 42.6667 128 42.6667C168.227 42.6667 188.34 42.6667 200.836 55.1635C213.333 67.6602 213.333 87.7734 213.333 128V384C213.333 424.226 213.333 444.339 200.836 456.836C188.34 469.333 168.227 469.333 128 469.333C87.7735 469.333 67.6602 469.333 55.1635 456.836C42.6667 444.339 42.6667 424.226 42.6667 384V128Z" fill="white"/>
<path d="M298.667 128C298.667 87.7734 298.667 67.6602 311.164 55.1635C323.661 42.6667 343.774 42.6667 384 42.6667C424.226 42.6667 444.339 42.6667 456.836 55.1635C469.333 67.6602 469.333 87.7734 469.333 128V384C469.333 424.226 469.333 444.339 456.836 456.836C444.339 469.333 424.226 469.333 384 469.333C343.774 469.333 323.661 469.333 311.164 456.836C298.667 444.339 298.667 424.226 298.667 384V128Z" fill="white"/>
</svg>
