<svg width="512" height="512" viewBox="0 0 512 512" fill="none" xmlns="http://www.w3.org/2000/svg">
<path fill-rule="evenodd" clip-rule="evenodd" d="M304.615 45.9144C296.715 42.6666 286.699 42.6666 266.667 42.6666C246.635 42.6666 236.619 42.6666 228.719 45.9144C218.185 50.2448 209.815 58.5509 205.452 69.0053C203.46 73.7778 202.681 79.3279 202.376 87.4237C201.927 99.3211 195.78 110.334 185.39 116.286C175.001 122.239 162.318 122.017 151.712 116.453C144.495 112.668 139.262 110.562 134.101 109.888C122.797 108.411 111.364 111.451 102.318 118.34C95.5339 123.507 90.5258 132.115 80.5101 149.332C70.4943 166.549 65.4865 175.157 64.3703 183.571C62.8819 194.79 65.9454 206.137 72.8866 215.115C76.0548 219.213 80.5073 222.656 87.4178 226.965C97.5769 233.301 104.114 244.094 104.113 256C104.112 267.906 97.5759 278.696 87.4178 285.03C80.5062 289.342 76.0529 292.787 72.8845 296.885C65.9432 305.862 62.88 317.207 64.3682 328.427C65.4844 336.84 70.4924 345.451 80.5079 362.667C90.5237 379.883 95.5317 388.493 102.316 393.657C111.362 400.546 122.795 403.586 134.099 402.11C139.26 401.436 144.492 399.33 151.709 395.545C162.315 389.982 175 389.76 185.389 395.712C195.779 401.666 201.927 412.678 202.376 424.578C202.681 432.672 203.46 438.223 205.452 442.995C209.815 453.448 218.185 461.756 228.719 466.086C236.619 469.333 246.635 469.333 266.667 469.333C286.699 469.333 296.715 469.333 304.615 466.086C315.149 461.756 323.518 453.448 327.881 442.995C329.873 438.223 330.654 432.672 330.959 424.576C331.407 412.678 337.553 401.666 347.943 395.712C358.332 389.758 371.017 389.982 381.624 395.545C388.841 399.33 394.072 401.433 399.232 402.108C410.537 403.586 421.969 400.546 431.015 393.657C437.801 388.491 442.808 379.883 452.824 362.664C462.84 345.448 467.847 336.84 468.964 328.427C470.451 317.207 467.388 305.86 460.448 296.883C457.278 292.785 452.826 289.34 445.914 285.03C435.757 278.696 429.22 267.904 429.22 255.998C429.22 244.092 435.757 233.303 445.914 226.969C452.828 222.658 457.28 219.215 460.45 215.115C467.39 206.138 470.454 194.792 468.967 183.573C467.849 175.158 462.842 166.55 452.826 149.333C442.81 132.117 437.803 123.508 431.017 118.342C421.971 111.453 410.539 108.413 399.234 109.89C394.074 110.564 388.841 112.669 381.626 116.454C371.019 122.018 358.334 122.24 347.945 116.287C337.555 110.334 331.407 99.3206 330.957 87.4226C330.652 79.3275 329.873 73.7776 327.881 69.0053C323.518 58.5509 315.149 50.2448 304.615 45.9144ZM266.667 320C302.283 320 331.153 291.347 331.153 256C331.153 220.653 302.283 192 266.667 192C231.051 192 202.18 220.653 202.18 256C202.18 291.347 231.051 320 266.667 320Z" fill="white"/>
</svg>
