<svg width="512" height="512" viewBox="0 0 512 512" fill="none" xmlns="http://www.w3.org/2000/svg">
<path d="M192.021 213.333C239.149 213.333 277.354 175.128 277.354 128C277.354 80.8716 239.149 42.6666 192.021 42.6666C144.892 42.6666 106.687 80.8716 106.687 128C106.687 175.128 144.892 213.333 192.021 213.333Z" fill="white"/>
<path d="M192.021 448.021C274.495 448.021 341.354 409.816 341.354 362.688C341.354 315.56 274.495 277.355 192.021 277.355C109.546 277.355 42.6874 315.56 42.6874 362.688C42.6874 409.816 109.546 448.021 192.021 448.021Z" fill="white"/>
<path d="M447.992 362.677C447.992 398.022 404.568 426.675 351.548 426.675C367.168 409.602 377.91 388.171 377.91 362.705C377.91 337.212 367.143 315.761 351.492 298.677C404.512 298.677 447.992 327.33 447.992 362.677Z" fill="white"/>
<path d="M383.992 128.016C383.992 163.362 355.339 192.016 319.992 192.016C312.284 192.016 304.896 190.653 298.052 188.156C308.145 170.405 313.909 149.871 313.909 127.992C313.909 106.129 308.154 85.6095 298.074 67.8672C304.911 65.3753 312.292 64.0157 319.992 64.0157C355.339 64.0157 383.992 92.6696 383.992 128.016Z" fill="white"/>
</svg>
