<svg width="512" height="512" viewBox="0 0 512 512" fill="none" xmlns="http://www.w3.org/2000/svg">
<path fill-rule="evenodd" clip-rule="evenodd" d="M294.464 113.778C294.464 74.5042 326.447 42.6667 365.899 42.6667C405.35 42.6667 437.333 74.5042 437.333 113.778C437.333 153.051 405.35 184.889 365.899 184.889C345.978 184.889 327.974 176.767 315.032 163.701L216.143 231.029C217.056 235.573 217.536 240.267 217.536 245.06C217.536 254.554 215.659 263.629 212.258 271.923L320.689 343.164C332.996 333.144 348.742 327.11 365.899 327.11C405.35 327.11 437.333 358.948 437.333 398.223C437.333 437.496 405.35 469.333 365.899 469.333C326.447 469.333 294.464 437.496 294.464 398.223C294.464 387.936 296.666 378.144 300.623 369.304L193.068 298.639C180.522 309.542 164.088 316.171 146.101 316.171C106.649 316.171 74.6667 284.333 74.6667 245.06C74.6667 205.786 106.649 173.949 146.101 173.949C168.787 173.949 188.982 184.475 202.058 200.857L297.897 135.604C295.667 128.717 294.464 121.378 294.464 113.778Z" fill="white"/>
</svg>
