<svg width="512" height="512" viewBox="0 0 512 512" fill="none" xmlns="http://www.w3.org/2000/svg">
<path fill-rule="evenodd" clip-rule="evenodd" d="M444.34 88.9935C469.333 113.987 469.333 154.214 469.333 234.667V277.333C469.333 357.786 469.333 398.014 444.34 423.006C419.346 448 379.12 448 298.667 448H213.334C211.535 448 209.758 448 208 448V64C209.758 63.9998 211.535 64 213.334 64H298.667C379.12 64 419.346 64 444.34 88.9935ZM176 64.1193V447.881C119.768 447.292 88.4461 443.793 67.661 423.006C42.6669 398.014 42.6669 357.786 42.6669 277.333V234.667C42.6669 154.214 42.6669 113.987 67.661 88.9935C88.4461 68.2078 119.768 64.7085 176 64.1193Z" fill="white"/>
</svg>
