<svg width="512" height="512" viewBox="0 0 512 512" fill="none" xmlns="http://www.w3.org/2000/svg">
<g filter="url(#filter0_d_1_7484)">
<path fill-rule="evenodd" clip-rule="evenodd" d="M256 208C264.837 208 272 215.164 272 224C272 235.49 278.729 247.48 289.782 257.287C301.11 267.337 313.485 272 320 272C328.836 272 336 279.164 336 288C336 296.837 328.836 304 320 304C304.25 304 286.298 295.753 272 284.154V362.667C272 389.178 250.509 410.667 224 410.667C197.491 410.667 176 389.178 176 362.667C176 336.158 197.491 314.667 224 314.667C229.611 314.667 234.995 315.629 240 317.398V224C240 215.164 247.164 208 256 208ZM240 362.667C240 353.831 232.837 346.667 224 346.667C215.164 346.667 208 353.831 208 362.667C208 371.503 215.164 378.667 224 378.667C232.837 378.667 240 371.503 240 362.667Z" fill="white"/>
<path fill-rule="evenodd" clip-rule="evenodd" d="M185.586 26.6669H326.409C331.1 26.6656 334.695 26.6646 337.839 27.0018C366.727 30.1022 388.839 53.8255 390.181 82.5628C415.584 90.1485 433.683 113.653 434.012 140.612C446.833 144.459 457.893 150.527 466.944 160.306C480.854 175.33 485.165 193.845 485.329 215.473C485.487 236.267 481.782 262.543 477.18 295.174L467.815 361.598C464.218 387.115 461.295 407.842 456.749 424.085C451.992 441.08 444.982 455.061 432 465.811C419.121 476.474 403.842 481.071 385.782 483.238C368.32 485.333 346.353 485.333 319.002 485.333H193C165.649 485.333 143.681 485.333 126.218 483.238C108.159 481.071 92.8796 476.474 80.0009 465.811C67.0194 455.061 60.008 441.08 55.2513 424.085C50.7045 407.842 47.7825 387.115 44.1855 361.598L34.8203 295.174C30.2192 262.543 26.514 236.267 26.6719 215.473C26.8359 193.845 31.1463 175.33 45.0554 160.306C54.1061 150.529 65.1619 144.462 77.9796 140.614C78.306 113.653 96.4093 90.1459 121.815 82.5615C123.157 53.8249 145.268 30.1022 174.157 27.0018C177.3 26.6646 180.896 26.6656 185.586 26.6669ZM110.699 134.994C130.45 133.333 154.661 133.333 183.807 133.334H328.192C357.334 133.333 381.543 133.333 401.291 134.993C398.366 122.031 386.786 112 372.517 112H139.475C125.205 112 113.625 122.031 110.699 134.994ZM334.424 58.8192C346.161 60.079 355.437 68.8284 357.711 80.0002H154.285C156.558 68.8284 165.834 60.079 177.571 58.8192C178.772 58.6904 180.483 58.6669 186.475 58.6669H325.521C331.512 58.6669 333.223 58.6904 334.424 58.8192ZM68.5372 182.045C74.9991 175.065 84.7162 170.436 103.598 167.924C122.822 165.367 148.556 165.334 185.011 165.334H326.989C363.443 165.334 389.178 165.367 408.404 167.924C427.284 170.436 437.001 175.065 443.463 182.045C449.775 188.863 453.197 198.14 453.329 215.716C453.468 233.852 450.138 257.766 445.308 292.017L436.286 356.017C432.493 382.914 429.837 401.515 425.933 415.46C422.174 428.89 417.75 436.064 411.593 441.163C405.332 446.347 396.924 449.673 381.969 451.467C366.637 453.308 346.592 453.333 317.965 453.333H194.035C165.408 453.333 145.364 453.308 130.031 451.467C115.076 449.673 106.67 446.347 100.409 441.163C94.2499 436.064 89.826 428.89 86.0668 415.46C82.1635 401.515 79.5075 382.914 75.7151 356.017L66.6917 292.017C61.8629 257.766 58.5332 233.852 58.6708 215.716C58.8043 198.14 62.2256 188.863 68.5372 182.045Z" fill="white"/>
</g>
<defs>
<filter id="filter0_d_1_7484" x="-4" y="0" width="520" height="520" filterUnits="userSpaceOnUse" color-interpolation-filters="sRGB">
<feFlood flood-opacity="0" result="BackgroundImageFix"/>
<feColorMatrix in="SourceAlpha" type="matrix" values="0 0 0 0 0 0 0 0 0 0 0 0 0 0 0 0 0 0 127 0" result="hardAlpha"/>
<feOffset dy="4"/>
<feGaussianBlur stdDeviation="2"/>
<feComposite in2="hardAlpha" operator="out"/>
<feColorMatrix type="matrix" values="0 0 0 0 0 0 0 0 0 0 0 0 0 0 0 0 0 0 0.25 0"/>
<feBlend mode="normal" in2="BackgroundImageFix" result="effect1_dropShadow_1_7484"/>
<feBlend mode="normal" in="SourceGraphic" in2="effect1_dropShadow_1_7484" result="shape"/>
</filter>
</defs>
</svg>
