<svg width="512" height="512" viewBox="0 0 512 512" fill="none" xmlns="http://www.w3.org/2000/svg">
<path fill-rule="evenodd" clip-rule="evenodd" d="M256 26.6666C164.69 26.6666 90.6675 100.689 90.6675 192V207.021C90.6675 221.888 86.2666 236.424 78.0196 248.794L53.5159 285.549C25.0766 328.209 46.7878 386.193 96.251 399.682C112.371 404.079 128.627 407.797 144.977 410.839L145.017 410.948C161.422 454.722 205.269 485.333 256 485.333C306.731 485.333 350.577 454.722 366.982 410.948L367.023 410.839C383.373 407.797 399.631 404.079 415.75 399.682C465.214 386.193 486.925 328.209 458.485 285.549L433.982 248.794C425.734 236.424 421.333 221.888 421.333 207.021V192C421.333 100.689 347.311 26.6666 256 26.6666ZM328.03 416.789C280.181 422.507 231.816 422.504 183.968 416.787C199.135 438.581 225.515 453.333 256 453.333C286.483 453.333 312.864 438.581 328.03 416.789ZM122.667 192C122.667 118.362 182.363 58.6666 256 58.6666C329.638 58.6666 389.333 118.362 389.333 192V207.021C389.333 228.207 395.605 248.917 407.356 266.545L431.859 303.3C448.183 327.784 435.723 361.067 407.33 368.811C308.254 395.831 203.748 395.831 104.671 368.811C76.2796 361.067 63.818 327.784 80.1416 303.3L104.645 266.545C116.397 248.917 122.667 228.207 122.667 207.021V192Z" fill="white"/>
</svg>
