<svg width="512" height="512" viewBox="0 0 512 512" fill="none" xmlns="http://www.w3.org/2000/svg">
<g filter="url(#filter0_d_1_11103)">
<path d="M215.026 82.7489H296.644C333.127 82.7483 361.977 82.7489 384.542 85.7831C407.753 88.9037 426.463 95.4685 441.207 110.211C455.948 124.954 462.511 143.663 465.634 166.874C467.424 180.197 468.16 195.718 468.461 213.715L468.462 213.753L468.468 213.79C468.599 214.574 468.668 215.38 468.668 216.202C468.668 216.879 468.622 217.543 468.531 218.195L468.525 218.232L468.526 218.27C468.668 229.493 468.668 241.638 468.668 254.772V257.011C468.668 293.495 468.667 322.343 465.634 344.908C462.511 368.12 455.948 386.829 441.207 401.573C426.463 416.314 407.753 422.879 384.542 425.999C361.977 429.032 333.127 429.034 296.644 429.034H215.026C178.543 429.034 149.695 429.033 127.128 425.999C103.917 422.879 85.2085 416.314 70.4657 401.573C55.7231 386.829 49.1577 368.12 46.037 344.908C43.0029 322.343 43.0024 293.495 43.0028 257.011V254.772C43.0026 241.638 43.0026 229.493 43.1444 218.27L43.1454 218.232L43.1395 218.195C43.0492 217.543 43.0028 216.877 43.0028 216.202C43.0028 215.38 43.0717 214.574 43.204 213.79L43.2098 213.753L43.2108 213.716C43.5114 195.718 44.2456 180.197 46.037 166.874C49.1577 143.663 55.7231 124.954 70.4657 110.211C85.2085 95.4686 103.917 88.9038 127.128 85.7831C149.695 82.7489 178.543 82.7483 215.026 82.7489ZM71.8094 231.083C71.7717 238.792 71.7704 247.043 71.7704 255.891C71.7704 293.717 71.8012 320.642 74.5487 341.078C77.2403 361.097 82.3001 372.722 90.8065 381.23C99.3133 389.736 110.94 394.797 130.961 397.489H130.962C151.397 400.236 178.32 400.266 216.145 400.266H295.525C333.352 400.266 360.276 400.236 380.709 397.489C400.729 394.797 412.356 389.736 420.864 381.23C429.37 372.722 434.432 361.098 437.121 341.078C439.871 320.642 439.9 293.717 439.9 255.891C439.9 247.043 439.898 238.792 439.861 231.083L439.858 230.586H71.8124L71.8094 231.083ZM136.766 320.887H216.145C224.089 320.887 230.529 327.328 230.529 335.27C230.529 343.216 224.089 349.654 216.145 349.654H136.766C128.822 349.654 122.383 343.216 122.383 335.27C122.383 327.328 128.822 320.887 136.766 320.887ZM265.758 320.887H295.525C303.468 320.887 309.909 327.328 309.909 335.27C309.909 343.216 303.468 349.654 295.525 349.654H265.758C257.814 349.654 251.374 343.216 251.374 335.27C251.374 327.328 257.814 320.887 265.758 320.887ZM216.145 111.516C178.319 111.516 151.396 111.546 130.961 114.294C110.94 116.985 99.3134 122.046 90.8065 130.553C82.2999 139.059 77.2404 150.686 74.5487 170.707C73.3569 179.571 72.6766 189.649 72.288 201.302L72.2704 201.818H439.398L439.382 201.302C438.996 189.649 438.315 179.571 437.121 170.707C434.432 150.686 429.37 139.059 420.864 130.553C412.356 122.046 400.728 116.985 380.709 114.294C360.276 111.546 333.352 111.516 295.525 111.516H216.145Z" fill="white" stroke="white"/>
</g>
<defs>
<filter id="filter0_d_1_11103" x="-4" y="0" width="520" height="520" filterUnits="userSpaceOnUse" color-interpolation-filters="sRGB">
<feFlood flood-opacity="0" result="BackgroundImageFix"/>
<feColorMatrix in="SourceAlpha" type="matrix" values="0 0 0 0 0 0 0 0 0 0 0 0 0 0 0 0 0 0 127 0" result="hardAlpha"/>
<feOffset dy="4"/>
<feGaussianBlur stdDeviation="2"/>
<feComposite in2="hardAlpha" operator="out"/>
<feColorMatrix type="matrix" values="0 0 0 0 0 0 0 0 0 0 0 0 0 0 0 0 0 0 0.25 0"/>
<feBlend mode="normal" in2="BackgroundImageFix" result="effect1_dropShadow_1_11103"/>
<feBlend mode="normal" in="SourceGraphic" in2="effect1_dropShadow_1_11103" result="shape"/>
</filter>
</defs>
</svg>
