<svg width="512" height="512" viewBox="0 0 512 512" fill="none" xmlns="http://www.w3.org/2000/svg">
<g filter="url(#filter0_d_1_7481)">
<path d="M341.98 213.98C348.229 207.732 348.229 197.601 341.98 191.353C335.731 185.105 325.602 185.105 319.354 191.353L224 286.705L192.647 255.354C186.399 249.105 176.268 249.105 170.02 255.354C163.772 261.602 163.772 271.731 170.02 277.98L212.687 320.646C218.936 326.895 229.065 326.895 235.313 320.646L341.98 213.98Z" fill="white"/>
<path fill-rule="evenodd" clip-rule="evenodd" d="M256 26.6667C129.343 26.6667 26.6667 129.343 26.6667 256C26.6667 382.658 129.343 485.333 256 485.333C382.658 485.333 485.333 382.658 485.333 256C485.333 129.343 382.658 26.6667 256 26.6667ZM58.6667 256C58.6667 147.016 147.016 58.6667 256 58.6667C364.984 58.6667 453.333 147.016 453.333 256C453.333 364.984 364.984 453.333 256 453.333C147.016 453.333 58.6667 364.984 58.6667 256Z" fill="white"/>
</g>
<defs>
<filter id="filter0_d_1_7481" x="-4" y="0" width="520" height="520" filterUnits="userSpaceOnUse" color-interpolation-filters="sRGB">
<feFlood flood-opacity="0" result="BackgroundImageFix"/>
<feColorMatrix in="SourceAlpha" type="matrix" values="0 0 0 0 0 0 0 0 0 0 0 0 0 0 0 0 0 0 127 0" result="hardAlpha"/>
<feOffset dy="4"/>
<feGaussianBlur stdDeviation="2"/>
<feComposite in2="hardAlpha" operator="out"/>
<feColorMatrix type="matrix" values="0 0 0 0 0 0 0 0 0 0 0 0 0 0 0 0 0 0 0.25 0"/>
<feBlend mode="normal" in2="BackgroundImageFix" result="effect1_dropShadow_1_7481"/>
<feBlend mode="normal" in="SourceGraphic" in2="effect1_dropShadow_1_7481" result="shape"/>
</filter>
</defs>
</svg>
