<svg width="512" height="512" viewBox="0 0 512 512" fill="none" xmlns="http://www.w3.org/2000/svg">
<path fill-rule="evenodd" clip-rule="evenodd" d="M341.333 144C326.605 144 314.667 155.939 314.667 170.667C314.667 185.394 326.605 197.333 341.333 197.333C356.062 197.333 368 185.394 368 170.667C368 155.939 356.062 144 341.333 144ZM282.667 170.667C282.667 138.266 308.932 112 341.333 112C373.734 112 400 138.266 400 170.667C400 203.067 373.734 229.333 341.333 229.333C308.932 229.333 282.667 203.067 282.667 170.667Z" fill="white"/>
<path fill-rule="evenodd" clip-rule="evenodd" d="M254.775 26.6666H257.224C306.47 26.6664 345.062 26.6662 375.174 30.7146C405.995 34.8584 430.317 43.5057 449.406 62.5949C468.495 81.6842 477.141 106.005 481.286 136.826C485.333 166.937 485.333 205.53 485.333 254.775V257.224C485.333 306.47 485.333 345.062 481.286 375.174C477.141 405.995 468.495 430.317 449.406 449.406C430.317 468.495 405.995 477.141 375.174 481.286C345.062 485.333 306.47 485.333 257.224 485.333H254.775C205.53 485.333 166.937 485.333 136.826 481.286C106.005 477.141 81.6842 468.495 62.5949 449.406C43.5057 430.317 34.8584 405.995 30.7146 375.174C26.6662 345.062 26.6664 306.47 26.6666 257.224V254.775C26.6664 205.53 26.6662 166.937 30.7146 136.826C34.8584 106.005 43.5057 81.6842 62.5949 62.5949C81.6842 43.5057 106.005 34.8584 136.826 30.7146C166.937 26.6662 205.53 26.6664 254.775 26.6666ZM85.2224 426.778C73.0696 414.624 66.096 398.182 62.4292 370.91C59.1549 346.558 58.7298 315.488 58.6747 273.922L90.5698 246.014C103.671 234.551 123.416 235.208 135.726 247.518L227.24 339.034C247.398 359.191 279.132 361.939 302.455 345.547L308.817 341.077C327.125 328.211 351.895 329.7 368.527 344.67L437.297 406.562C438.046 407.236 438.839 407.825 439.669 408.333C436.22 415.605 431.972 421.583 426.778 426.778C414.624 438.931 398.182 445.905 370.91 449.57C343.176 453.299 306.735 453.333 256 453.333C205.265 453.333 168.823 453.299 141.09 449.57C113.817 445.905 97.3749 438.931 85.2224 426.778ZM141.09 62.4292C113.817 66.096 97.3749 73.0696 85.2224 85.2224C73.0696 97.3749 66.096 113.817 62.4292 141.09C59.3331 164.119 58.7844 193.153 58.6875 231.392L69.4978 221.933C95.2774 199.375 134.131 200.669 158.353 224.892L249.867 316.405C259.031 325.568 273.455 326.818 284.058 319.366L290.419 314.895C320.932 293.451 362.214 295.936 389.935 320.885L449.114 374.146C449.271 373.084 449.423 372.006 449.57 370.91C453.299 343.176 453.333 306.735 453.333 256C453.333 205.265 453.299 168.823 449.57 141.09C445.905 113.817 438.931 97.3749 426.778 85.2224C414.624 73.0696 398.182 66.096 370.91 62.4292C343.176 58.7005 306.735 58.6666 256 58.6666C205.265 58.6666 168.823 58.7005 141.09 62.4292Z" fill="white"/>
</svg>
