<svg width="512" height="512" viewBox="0 0 512 512" fill="none" xmlns="http://www.w3.org/2000/svg">
<path fill-rule="evenodd" clip-rule="evenodd" d="M235.038 59.7668C135.909 70.2338 58.6667 154.097 58.6667 256C58.6667 364.983 147.016 453.333 256 453.333C357.903 453.333 441.766 376.092 452.233 276.962C423.93 312.894 380.002 336 330.667 336C245.246 336 176 266.754 176 181.333C176 131.997 199.107 88.0704 235.038 59.7668ZM26.6667 256C26.6667 129.343 129.343 26.6666 256 26.6666C271.287 26.6666 278.942 38.8535 280.252 48.5604C281.515 57.8982 278.063 69.7738 267.328 76.2596C231.738 97.7664 208 136.785 208 181.333C208 249.079 262.921 304 330.667 304C375.215 304 414.234 280.262 435.74 244.672C442.225 233.937 454.101 230.485 463.439 231.748C473.146 233.058 485.333 240.712 485.333 256C485.333 382.658 382.658 485.333 256 485.333C129.343 485.333 26.6667 382.658 26.6667 256Z" fill="white"/>
</svg>
