<svg width="512" height="512" viewBox="0 0 512 512" fill="none" xmlns="http://www.w3.org/2000/svg">
<g filter="url(#filter0_d_1_7487)">
<path fill-rule="evenodd" clip-rule="evenodd" d="M256 58.6666C147.016 58.6666 58.6667 147.016 58.6667 256C58.6667 364.983 147.016 453.333 256 453.333C364.984 453.333 453.333 364.983 453.333 256C453.333 147.016 364.984 58.6666 256 58.6666ZM26.6667 256C26.6667 129.343 129.343 26.6666 256 26.6666C382.658 26.6666 485.333 129.343 485.333 256C485.333 382.658 382.658 485.333 256 485.333C129.343 485.333 26.6667 382.658 26.6667 256ZM256 112C264.836 112 272 119.163 272 128V134.757C306.782 140.985 336 167.117 336 202.667C336 211.503 328.836 218.667 320 218.667C311.164 218.667 304 211.503 304 202.667C304 188.193 291.966 172.872 272 167.413V241.423C306.782 247.652 336 273.783 336 309.333C336 344.883 306.782 371.014 272 377.244V384C272 392.836 264.836 400 256 400C247.164 400 240 392.836 240 384V377.244C205.218 371.014 176 344.883 176 309.333C176 300.497 183.164 293.333 192 293.333C200.837 293.333 208 300.497 208 309.333C208 323.808 220.034 339.127 240 344.587V270.577C205.218 264.348 176 238.216 176 202.667C176 167.117 205.218 140.985 240 134.757V128C240 119.163 247.164 112 256 112ZM240 167.413C220.034 172.872 208 188.193 208 202.667C208 217.141 220.034 232.461 240 237.92V167.413ZM272 274.08V344.587C291.966 339.127 304 323.808 304 309.333C304 294.859 291.966 279.539 272 274.08Z" fill="white"/>
</g>
<defs>
<filter id="filter0_d_1_7487" x="-4" y="0" width="520" height="520" filterUnits="userSpaceOnUse" color-interpolation-filters="sRGB">
<feFlood flood-opacity="0" result="BackgroundImageFix"/>
<feColorMatrix in="SourceAlpha" type="matrix" values="0 0 0 0 0 0 0 0 0 0 0 0 0 0 0 0 0 0 127 0" result="hardAlpha"/>
<feOffset dy="4"/>
<feGaussianBlur stdDeviation="2"/>
<feComposite in2="hardAlpha" operator="out"/>
<feColorMatrix type="matrix" values="0 0 0 0 0 0 0 0 0 0 0 0 0 0 0 0 0 0 0.25 0"/>
<feBlend mode="normal" in2="BackgroundImageFix" result="effect1_dropShadow_1_7487"/>
<feBlend mode="normal" in="SourceGraphic" in2="effect1_dropShadow_1_7487" result="shape"/>
</filter>
</defs>
</svg>
