<svg width="512" height="512" viewBox="0 0 512 512" fill="none" xmlns="http://www.w3.org/2000/svg">
<g filter="url(#filter0_d_1_7491)">
<path fill-rule="evenodd" clip-rule="evenodd" d="M254.775 26.6668H288C296.836 26.6668 304 33.8303 304 42.6667C304 51.5032 296.836 58.6667 288 58.6667H256C205.265 58.6667 168.823 58.7007 141.09 62.4293C113.817 66.0961 97.3748 73.0697 85.2223 85.2225C73.0696 97.375 66.0959 113.817 62.4291 141.09C58.7005 168.823 58.6666 205.265 58.6666 256C58.6666 306.735 58.7005 343.177 62.4291 370.91C66.0959 398.182 73.0696 414.624 85.2223 426.778C97.3748 438.931 113.817 445.905 141.09 449.57C168.823 453.299 205.265 453.333 256 453.333C306.735 453.333 343.176 453.299 370.91 449.57C398.182 445.905 414.624 438.931 426.777 426.778C438.931 414.624 445.905 398.182 449.57 370.91C453.299 343.177 453.333 306.735 453.333 256V224C453.333 215.164 460.497 208 469.333 208C478.169 208 485.333 215.164 485.333 224V257.225C485.333 306.47 485.333 345.062 481.286 375.174C477.141 405.995 468.495 430.317 449.406 449.406C430.317 468.495 405.995 477.141 375.174 481.286C345.062 485.333 306.47 485.333 257.224 485.333H254.775C205.53 485.333 166.937 485.333 136.826 481.286C106.005 477.141 81.6842 468.495 62.5949 449.406C43.5056 430.317 34.8584 405.995 30.7146 375.174C26.6661 345.062 26.6664 306.47 26.6666 257.225V254.776C26.6664 205.53 26.6661 166.937 30.7146 136.826C34.8584 106.005 43.5056 81.6843 62.5949 62.5951C81.6842 43.5058 106.005 34.8585 136.826 30.7148C166.937 26.6663 205.53 26.6665 254.775 26.6668ZM357.771 48.553C386.952 19.3714 434.265 19.3714 463.447 48.553C492.629 77.7345 492.629 125.047 463.447 154.229L321.621 296.056C313.7 303.977 308.738 308.939 303.202 313.259C296.68 318.345 289.623 322.705 282.157 326.264C275.819 329.284 269.16 331.503 258.534 335.044L196.571 355.699C185.131 359.512 172.518 356.536 163.992 348.009C155.465 339.482 152.487 326.869 156.301 315.428L176.955 253.466C180.497 242.84 182.715 236.181 185.736 229.843C189.295 222.377 193.656 215.32 198.742 208.798C203.061 203.261 208.023 198.3 215.944 190.379L357.771 48.553ZM440.819 71.1805C424.134 54.4957 397.084 54.4957 380.399 71.1805L372.365 79.215C372.849 81.26 373.525 83.6965 374.468 86.4142C377.525 95.2261 383.311 106.831 394.24 117.76C405.169 128.689 416.774 134.474 425.585 137.531C428.303 138.474 430.739 139.152 432.785 139.636L440.819 131.601C457.504 114.917 457.504 87.865 440.819 71.1805ZM407.575 164.845C396.569 160.111 383.748 152.522 371.612 140.387C359.477 128.253 351.889 115.431 347.155 104.424L239.307 212.272C230.421 221.158 226.935 224.683 223.974 228.478C220.318 233.167 217.182 238.242 214.624 243.61C212.552 247.957 210.958 252.649 206.984 264.57L197.771 292.211L219.789 314.229L247.43 305.016C259.351 301.041 264.043 299.448 268.39 297.376C273.758 294.818 278.833 291.682 283.522 288.026C287.317 285.065 290.841 281.579 299.727 272.693L407.575 164.845Z" fill="white"/>
</g>
<defs>
<filter id="filter0_d_1_7491" x="-4" y="0" width="520" height="520" filterUnits="userSpaceOnUse" color-interpolation-filters="sRGB">
<feFlood flood-opacity="0" result="BackgroundImageFix"/>
<feColorMatrix in="SourceAlpha" type="matrix" values="0 0 0 0 0 0 0 0 0 0 0 0 0 0 0 0 0 0 127 0" result="hardAlpha"/>
<feOffset dy="4"/>
<feGaussianBlur stdDeviation="2"/>
<feComposite in2="hardAlpha" operator="out"/>
<feColorMatrix type="matrix" values="0 0 0 0 0 0 0 0 0 0 0 0 0 0 0 0 0 0 0.25 0"/>
<feBlend mode="normal" in2="BackgroundImageFix" result="effect1_dropShadow_1_7491"/>
<feBlend mode="normal" in="SourceGraphic" in2="effect1_dropShadow_1_7491" result="shape"/>
</filter>
</defs>
</svg>
