<svg width="512" height="512" viewBox="0 0 512 512" fill="none" xmlns="http://www.w3.org/2000/svg">
<g filter="url(#filter0_d_1_7493)">
<path fill-rule="evenodd" clip-rule="evenodd" d="M256 26.6667C243.1 26.6667 231.219 29.8729 218.214 35.2517C205.655 40.4455 191.068 48.1006 172.904 57.6327L128.798 80.779C106.505 92.4773 88.6646 101.839 74.8899 111.038C60.6194 120.568 49.6281 130.603 41.6238 144.196C33.6464 157.743 30.0577 172.413 28.3368 189.882C26.6664 206.839 26.6664 227.693 26.6666 253.922V258.078C26.6664 284.305 26.6664 305.161 28.3368 322.118C30.0577 339.588 33.6464 354.257 41.6238 367.804C49.6281 381.397 60.6194 391.433 74.8899 400.962C88.6646 410.161 106.505 419.522 128.797 431.221L172.902 454.366C191.067 463.9 205.654 471.554 218.214 476.749C231.219 482.127 243.1 485.333 256 485.333C268.9 485.333 280.781 482.127 293.785 476.749C306.344 471.554 320.932 463.9 339.095 454.368L383.202 431.221C405.495 419.522 423.334 410.161 437.109 400.962C451.381 391.433 462.372 381.397 470.376 367.804C478.353 354.257 481.941 339.588 483.663 322.118C485.333 305.161 485.333 284.307 485.333 258.08V253.92C485.333 227.693 485.333 206.839 483.663 189.882C481.941 172.413 478.353 157.743 470.376 144.196C462.372 130.603 451.381 120.568 437.109 111.038C423.334 101.839 405.495 92.4773 383.202 80.7787L339.095 57.6329C320.932 48.1008 306.344 40.4457 293.785 35.2517C280.781 29.8729 268.9 26.6667 256 26.6667ZM187.11 86.3165C206.091 76.3557 219.392 69.3931 230.443 64.8227C241.199 60.3743 248.757 58.6667 256 58.6667C263.243 58.6667 270.801 60.3743 281.557 64.8227C292.608 69.3931 305.909 76.3557 324.889 86.3165L367.556 108.707C390.803 120.906 407.136 129.5 419.339 137.65C425.359 141.67 430.088 145.403 433.909 149.157L362.854 184.684L181.524 89.2479L187.11 86.3165ZM148.153 106.76L144.444 108.707C121.197 120.906 104.865 129.5 92.6617 137.65C86.6412 141.67 81.9105 145.403 78.0914 149.157L256 238.112L327.62 202.302L152.548 110.159C150.847 109.264 149.374 108.105 148.153 106.76ZM62.6704 177.224C61.5931 181.787 60.7788 186.968 60.1825 193.019C58.6845 208.226 58.6666 227.507 58.6666 254.752V257.248C58.6666 284.493 58.6845 303.774 60.1825 318.98C61.6477 333.854 64.4313 343.471 69.1982 351.567C73.9385 359.616 80.795 366.426 92.6617 374.351C104.865 382.5 121.197 391.093 144.444 403.294L187.11 425.683C206.091 435.644 219.392 442.607 230.443 447.177C233.933 448.621 237.086 449.775 240 450.677V265.888L62.6704 177.224ZM272 450.677C274.914 449.775 278.067 448.621 281.557 447.177C292.608 442.607 305.909 435.644 324.889 425.683L367.556 403.294C390.803 391.093 407.136 382.5 419.339 374.351C431.204 366.426 438.061 359.616 442.801 351.567C447.569 343.471 450.353 333.854 451.816 318.98C453.316 303.774 453.333 284.493 453.333 257.248V254.752C453.333 227.507 453.316 208.226 451.816 193.019C451.221 186.968 450.406 181.787 449.329 177.224L378.667 212.555V277.333C378.667 286.17 371.503 293.333 362.667 293.333C353.83 293.333 346.667 286.17 346.667 277.333V228.555L272 265.888V450.677Z" fill="white"/>
</g>
<defs>
<filter id="filter0_d_1_7493" x="-4" y="0" width="520" height="520" filterUnits="userSpaceOnUse" color-interpolation-filters="sRGB">
<feFlood flood-opacity="0" result="BackgroundImageFix"/>
<feColorMatrix in="SourceAlpha" type="matrix" values="0 0 0 0 0 0 0 0 0 0 0 0 0 0 0 0 0 0 127 0" result="hardAlpha"/>
<feOffset dy="4"/>
<feGaussianBlur stdDeviation="2"/>
<feComposite in2="hardAlpha" operator="out"/>
<feColorMatrix type="matrix" values="0 0 0 0 0 0 0 0 0 0 0 0 0 0 0 0 0 0 0.25 0"/>
<feBlend mode="normal" in2="BackgroundImageFix" result="effect1_dropShadow_1_7493"/>
<feBlend mode="normal" in="SourceGraphic" in2="effect1_dropShadow_1_7493" result="shape"/>
</filter>
</defs>
</svg>
