<svg width="512" height="512" viewBox="0 0 512 512" fill="none" xmlns="http://www.w3.org/2000/svg">
<g filter="url(#filter0_d_1_7495)">
<path fill-rule="evenodd" clip-rule="evenodd" d="M26.6678 256C26.6678 129.343 129.344 26.6666 256 26.6666C382.658 26.6666 485.333 129.343 485.333 256V362.46C485.336 363.987 485.336 365.557 485.336 367.172C485.336 367.994 485.333 368.828 485.333 369.675V373.632C485.333 374.492 485.336 375.341 485.336 376.177C485.34 395.674 485.344 408.745 482.106 420.203C475.774 442.609 460.555 461.399 439.953 471.648C429.4 476.898 416.781 478.976 398.541 481.982C397.696 482.12 396.836 482.261 395.966 482.406L395.505 482.481C389.02 483.554 383.447 484.474 378.818 484.949C373.993 485.444 369.022 485.602 363.923 484.553C347.189 481.105 333.801 468.879 328.186 452.841C326.49 448.002 325.882 443.076 325.604 438.112C325.333 433.318 325.333 427.475 325.333 420.565V323.991C325.333 323.262 325.333 322.539 325.333 321.826C325.323 311.652 325.314 303.2 327.484 295.979C332.448 279.46 345.568 266.496 362.434 262.445C369.798 260.676 378.18 261.378 387.742 262.182C388.461 262.242 389.184 262.302 389.916 262.364C390.784 262.434 391.642 262.504 392.484 262.575C410.404 264.047 422.793 265.064 433.308 269.133C440.58 271.947 447.302 275.789 453.333 280.48V256C453.333 147.016 364.986 58.6666 256 58.6666C147.017 58.6666 58.6678 147.016 58.6678 256V280.48C64.6992 275.789 71.4224 271.947 78.6947 269.133C89.2094 265.064 101.597 264.047 119.517 262.575C120.361 262.504 121.218 262.434 122.086 262.364C122.818 262.302 123.542 262.242 124.26 262.182C133.822 261.378 142.203 260.676 149.568 262.445C166.434 266.496 179.554 279.46 184.518 295.979C186.688 303.2 186.68 311.652 186.669 321.826C186.668 322.539 186.668 323.262 186.668 323.991V420.563C186.668 427.475 186.668 433.318 186.399 438.112C186.119 443.076 185.512 448.002 183.817 452.841C178.201 468.879 164.814 481.105 148.079 484.553C142.981 485.602 138.009 485.444 133.184 484.949C128.555 484.474 122.983 483.554 116.497 482.481L116.035 482.406C115.165 482.261 114.306 482.12 113.461 481.982C95.2201 478.976 82.6017 476.898 72.0493 471.648C51.4469 461.399 36.2283 442.609 29.8957 420.203C27.1109 410.349 26.7239 399.302 26.6738 384L26.6678 380.962C26.6663 379.409 26.6667 377.815 26.6672 376.177C26.6674 375.341 26.6678 374.492 26.6678 373.632V369.675C26.6678 368.83 26.6674 367.994 26.6672 367.172C26.6667 365.562 26.6663 363.996 26.6678 362.473V256ZM58.6678 373.632C58.6678 396.623 58.8169 404.875 60.6896 411.501C64.6608 425.551 74.0805 436.917 86.3028 442.997C91.9864 445.826 99.4179 447.228 121.249 450.833C128.325 452.002 132.92 452.753 136.453 453.116C139.9 453.47 141.152 453.308 141.623 453.21C146.832 452.137 151.54 448.192 153.615 442.266C153.872 441.532 154.24 440.028 154.449 436.316C154.662 432.529 154.668 427.592 154.668 420.126V323.991C154.668 310.462 154.495 307.262 153.872 305.19C152.026 299.049 147.363 294.825 142.094 293.559C140.439 293.163 137.771 293.178 124.72 294.255C103.217 296.03 95.8697 296.8 90.2392 298.978C76.0077 304.482 64.8184 316.922 60.5263 332.802C58.806 339.168 58.6678 347.247 58.6678 369.675V373.632ZM256 122.667C264.838 122.667 272 129.83 272 138.667V245.333C272 254.17 264.838 261.333 256 261.333C247.164 261.333 240 254.17 240 245.333V138.667C240 129.83 247.164 122.667 256 122.667ZM192.001 154.667C200.838 154.667 208.001 161.83 208.001 170.667V213.333C208.001 222.17 200.838 229.333 192.001 229.333C183.164 229.333 176.001 222.17 176.001 213.333V170.667C176.001 161.83 183.164 154.667 192.001 154.667ZM320 154.667C328.838 154.667 336 161.83 336 170.667V213.333C336 222.17 328.838 229.333 320 229.333C311.164 229.333 304 222.17 304 213.333V170.667C304 161.83 311.164 154.667 320 154.667ZM387.283 294.255C374.232 293.178 371.563 293.163 369.907 293.559C364.638 294.825 359.977 299.049 358.129 305.19C357.508 307.262 357.333 310.462 357.333 323.991V420.126C357.333 427.592 357.34 432.529 357.553 436.316C357.762 440.028 358.129 441.532 358.387 442.266C360.463 448.192 365.171 452.137 370.379 453.21C370.85 453.308 372.102 453.47 375.55 453.116C379.083 452.753 383.676 452.002 390.754 450.833C412.585 447.228 420.015 445.826 425.7 442.997C437.922 436.917 447.341 425.551 451.313 411.501C453.186 404.875 453.333 396.623 453.333 373.632V369.675C453.333 347.247 453.197 339.168 451.475 332.802C447.183 316.922 435.994 304.482 421.762 298.978C416.132 296.8 408.785 296.03 387.283 294.255Z" fill="white"/>
</g>
<defs>
<filter id="filter0_d_1_7495" x="-4" y="0" width="520" height="520" filterUnits="userSpaceOnUse" color-interpolation-filters="sRGB">
<feFlood flood-opacity="0" result="BackgroundImageFix"/>
<feColorMatrix in="SourceAlpha" type="matrix" values="0 0 0 0 0 0 0 0 0 0 0 0 0 0 0 0 0 0 127 0" result="hardAlpha"/>
<feOffset dy="4"/>
<feGaussianBlur stdDeviation="2"/>
<feComposite in2="hardAlpha" operator="out"/>
<feColorMatrix type="matrix" values="0 0 0 0 0 0 0 0 0 0 0 0 0 0 0 0 0 0 0.25 0"/>
<feBlend mode="normal" in2="BackgroundImageFix" result="effect1_dropShadow_1_7495"/>
<feBlend mode="normal" in="SourceGraphic" in2="effect1_dropShadow_1_7495" result="shape"/>
</filter>
</defs>
</svg>
