<svg width="512" height="512" viewBox="0 0 512 512" fill="none" xmlns="http://www.w3.org/2000/svg">
<g filter="url(#filter0_d_1_7497)">
<path fill-rule="evenodd" clip-rule="evenodd" d="M119.986 94.3808C84.5944 110.559 58.6665 149.038 58.6665 194.923C58.6665 241.801 77.8499 277.933 105.35 308.9C128.015 334.421 155.452 355.573 182.211 376.203C188.566 381.103 194.883 385.973 201.089 390.865C212.311 399.712 222.321 407.475 231.97 413.114C241.623 418.756 249.395 421.331 256 421.331C262.605 421.331 270.376 418.756 280.03 413.114C289.679 407.475 299.688 399.712 310.912 390.865C317.118 385.973 323.435 381.103 329.79 376.203C356.548 355.573 383.985 334.421 406.649 308.9C434.15 277.933 453.333 241.801 453.333 194.923C453.333 149.038 427.405 110.559 392.013 94.3808C357.63 78.6643 311.43 82.8265 267.528 128.441C264.512 131.574 260.35 133.345 256 133.345C251.65 133.345 247.488 131.574 244.471 128.441C200.569 82.8265 154.369 78.6643 119.986 94.3808ZM256 95.1196C206.676 50.9899 151.444 44.8167 106.683 65.2773C59.407 86.8871 26.6665 137.065 26.6665 194.923C26.6665 251.787 50.3572 295.168 81.4232 330.148C106.301 358.161 136.751 381.609 163.644 402.315C169.74 407.008 175.654 411.563 181.278 415.996C192.206 424.61 203.937 433.796 215.825 440.742C227.71 447.686 241.271 453.331 256 453.331C270.728 453.331 284.29 447.686 296.175 440.742C308.064 433.796 319.793 424.61 330.722 415.996C336.345 411.563 342.259 407.008 348.356 402.315C375.249 381.609 405.698 358.161 430.577 330.148C461.642 295.168 485.333 251.787 485.333 194.923C485.333 137.065 452.593 86.8871 405.316 65.2773C360.555 44.8167 305.325 50.9899 256 95.1196Z" fill="white"/>
</g>
<defs>
<filter id="filter0_d_1_7497" x="-4" y="0" width="520" height="520" filterUnits="userSpaceOnUse" color-interpolation-filters="sRGB">
<feFlood flood-opacity="0" result="BackgroundImageFix"/>
<feColorMatrix in="SourceAlpha" type="matrix" values="0 0 0 0 0 0 0 0 0 0 0 0 0 0 0 0 0 0 127 0" result="hardAlpha"/>
<feOffset dy="4"/>
<feGaussianBlur stdDeviation="2"/>
<feComposite in2="hardAlpha" operator="out"/>
<feColorMatrix type="matrix" values="0 0 0 0 0 0 0 0 0 0 0 0 0 0 0 0 0 0 0.25 0"/>
<feBlend mode="normal" in2="BackgroundImageFix" result="effect1_dropShadow_1_7497"/>
<feBlend mode="normal" in="SourceGraphic" in2="effect1_dropShadow_1_7497" result="shape"/>
</filter>
</defs>
</svg>
