<svg width="512" height="512" viewBox="0 0 512 512" fill="none" xmlns="http://www.w3.org/2000/svg">
<g filter="url(#filter0_d_1_7499)">
<path d="M240 384C240 392.836 247.164 400 256 400C264.837 400 272 392.836 272 384V320C272 311.164 264.837 304 256 304C247.164 304 240 311.164 240 320V384Z" fill="white"/>
<path fill-rule="evenodd" clip-rule="evenodd" d="M256 26.6666C240.531 26.6666 226.419 30.9143 210.971 38.1248C196.017 45.1046 178.725 55.406 157.052 68.3163L125.999 86.8145C102.125 101.036 83.1007 112.368 68.6964 123.205C53.8269 134.392 42.6663 145.911 35.3934 161.082C28.117 176.26 26.1447 192.145 26.7773 210.685C27.3898 228.629 30.529 250.447 34.4652 277.8L40.7022 321.146C45.7665 356.343 49.7851 384.273 55.7891 406.02C61.9781 428.435 70.7596 446.227 86.6057 459.872C102.439 473.506 121.383 479.603 144.562 482.511C167.073 485.333 195.473 485.333 231.302 485.333H280.697C316.527 485.333 344.928 485.333 367.439 482.511C390.617 479.603 409.561 473.506 425.395 459.872C441.239 446.227 450.022 428.435 456.211 406.02C462.214 384.275 466.233 356.343 471.298 321.146L477.534 277.8C481.472 250.445 484.61 228.629 485.222 210.685C485.856 192.145 483.882 176.26 476.606 161.082C469.333 145.911 458.174 134.392 443.304 123.205C428.9 112.368 409.875 101.036 386.001 86.8145L354.948 68.3163C333.276 55.406 315.983 45.1046 301.028 38.1248C285.581 30.9143 271.469 26.6666 256 26.6666ZM172.706 96.2391C195.266 82.8002 211.183 73.3399 224.505 67.1217C237.5 61.0566 246.844 58.6666 256 58.6666C265.158 58.6666 274.5 61.0566 287.494 67.1217C300.817 73.3399 316.734 82.8002 339.294 96.2391L368.838 113.838C393.677 128.634 411.204 139.101 424.066 148.776C436.618 158.221 443.494 166.036 447.75 174.916C452.004 183.788 453.773 193.992 453.241 209.593C452.695 225.589 449.826 245.681 445.73 274.157L439.782 315.486C434.524 352.034 430.765 377.946 425.365 397.504C420.087 416.616 413.736 427.682 404.514 435.622C395.279 443.575 383.309 448.271 363.456 450.76C343.168 453.303 316.774 453.333 279.597 453.333H232.403C195.226 453.333 168.833 453.303 148.544 450.76C128.692 448.271 116.721 443.575 107.486 435.622C98.2642 427.682 91.912 416.616 86.635 397.504C81.2353 377.946 77.4762 352.034 72.2175 315.486L66.2704 274.155C62.1731 245.681 59.3046 225.589 58.7587 209.593C58.2264 193.992 59.9954 183.788 64.2488 174.916C68.5057 166.036 75.3806 158.221 87.9346 148.776C100.796 139.101 118.324 128.634 143.162 113.838L172.706 96.2391Z" fill="white"/>
</g>
<defs>
<filter id="filter0_d_1_7499" x="-4" y="0" width="520" height="520" filterUnits="userSpaceOnUse" color-interpolation-filters="sRGB">
<feFlood flood-opacity="0" result="BackgroundImageFix"/>
<feColorMatrix in="SourceAlpha" type="matrix" values="0 0 0 0 0 0 0 0 0 0 0 0 0 0 0 0 0 0 127 0" result="hardAlpha"/>
<feOffset dy="4"/>
<feGaussianBlur stdDeviation="2"/>
<feComposite in2="hardAlpha" operator="out"/>
<feColorMatrix type="matrix" values="0 0 0 0 0 0 0 0 0 0 0 0 0 0 0 0 0 0 0.25 0"/>
<feBlend mode="normal" in2="BackgroundImageFix" result="effect1_dropShadow_1_7499"/>
<feBlend mode="normal" in="SourceGraphic" in2="effect1_dropShadow_1_7499" result="shape"/>
</filter>
</defs>
</svg>
