<svg width="512" height="512" viewBox="0 0 512 512" fill="none" xmlns="http://www.w3.org/2000/svg">
<g filter="url(#filter0_d_1_7502)">
<path fill-rule="evenodd" clip-rule="evenodd" d="M112 198.459V170.667C112 91.1377 176.471 26.6666 256 26.6666C335.528 26.6666 400 91.1377 400 170.667V198.459C404.838 198.799 409.399 199.242 413.692 199.819C432.894 202.401 449.06 207.924 461.903 220.764C474.743 233.606 480.266 249.773 482.848 268.975C485.333 287.471 485.333 310.987 485.333 340.162V342.504C485.333 371.68 485.333 395.196 482.848 413.692C480.266 432.894 474.743 449.06 461.903 461.901C449.06 474.743 432.894 480.267 413.692 482.848C395.196 485.333 371.68 485.333 342.504 485.333H169.496C140.321 485.333 116.805 485.333 98.3092 482.848C79.1068 480.267 62.9389 474.743 50.098 461.901C37.257 449.06 31.734 432.894 29.1523 413.692C26.6657 395.196 26.6661 371.68 26.6665 342.504V340.162C26.6661 310.987 26.6657 287.471 29.1523 268.975C31.734 249.773 37.257 233.606 50.098 220.764C62.9389 207.924 79.1068 202.401 98.3092 199.819C102.6 199.242 107.161 198.799 112 198.459ZM144 170.667C144 108.811 194.144 58.6666 256 58.6666C317.856 58.6666 368 108.811 368 170.667V197.407C360.032 197.333 351.539 197.333 342.504 197.333H169.496C160.461 197.333 151.968 197.333 144 197.407V170.667ZM72.7254 243.392C78.6296 237.487 86.9193 233.638 102.573 231.533C118.687 229.367 140.044 229.333 170.667 229.333H341.333C371.955 229.333 393.312 229.367 409.427 231.533C425.081 233.638 433.369 237.487 439.274 243.392C445.18 249.297 449.028 257.585 451.134 273.239C453.299 289.355 453.333 310.711 453.333 341.333C453.333 371.955 453.299 393.312 451.134 409.427C449.028 425.082 445.18 433.37 439.274 439.275C433.369 445.18 425.081 449.028 409.427 451.134C393.312 453.299 371.955 453.333 341.333 453.333H170.667C140.044 453.333 118.687 453.299 102.573 451.134C86.9193 449.028 78.6296 445.18 72.7254 439.275C66.8212 433.37 62.9716 425.082 60.867 409.427C58.7004 393.312 58.6665 371.955 58.6665 341.333C58.6665 310.711 58.7004 289.355 60.867 273.239C62.9716 257.585 66.8212 249.297 72.7254 243.392Z" fill="white"/>
</g>
<defs>
<filter id="filter0_d_1_7502" x="-4" y="0" width="520" height="520" filterUnits="userSpaceOnUse" color-interpolation-filters="sRGB">
<feFlood flood-opacity="0" result="BackgroundImageFix"/>
<feColorMatrix in="SourceAlpha" type="matrix" values="0 0 0 0 0 0 0 0 0 0 0 0 0 0 0 0 0 0 127 0" result="hardAlpha"/>
<feOffset dy="4"/>
<feGaussianBlur stdDeviation="2"/>
<feComposite in2="hardAlpha" operator="out"/>
<feColorMatrix type="matrix" values="0 0 0 0 0 0 0 0 0 0 0 0 0 0 0 0 0 0 0.25 0"/>
<feBlend mode="normal" in2="BackgroundImageFix" result="effect1_dropShadow_1_7502"/>
<feBlend mode="normal" in="SourceGraphic" in2="effect1_dropShadow_1_7502" result="shape"/>
</filter>
</defs>
</svg>
