<svg width="512" height="512" viewBox="0 0 512 512" fill="none" xmlns="http://www.w3.org/2000/svg">
<g filter="url(#filter0_d_1_7504)">
<path fill-rule="evenodd" clip-rule="evenodd" d="M398.36 78.2245C384.76 80.645 366.859 86.5688 340.743 95.2746L255.409 123.719C240.98 128.529 231.439 131.735 224.41 135.004C217.754 138.1 214.878 140.592 213.034 143.15C211.19 145.708 209.736 149.225 208.904 156.518C208.024 164.219 208 174.284 208 189.494V233.792L432 159.124C431.998 132.637 431.913 114.343 429.954 100.996C428.005 87.7006 424.662 82.9134 420.926 80.22C417.189 77.5267 411.591 75.87 398.36 78.2245ZM463.791 127.99C463.529 115.947 462.94 105.385 461.615 96.353C459.136 79.4429 453.62 64.3382 439.638 54.2604C425.654 44.1825 409.581 43.7249 392.753 46.7197C376.568 49.6003 356.433 56.3124 331.86 64.5044L244.446 93.6419C231.085 98.0957 219.791 101.859 210.913 105.99C201.474 110.381 193.284 115.823 187.074 124.439C180.864 133.055 178.291 142.545 177.11 152.888C176.507 158.17 176.232 164.092 176.106 170.656H176V186.852C176 187.433 176 188.018 176 188.607V341.316C162.63 331.275 146.01 325.323 128 325.323C83.8175 325.323 48.0003 361.141 48.0003 405.323C48.0003 449.506 83.8175 485.323 128 485.323C172.183 485.323 208 449.506 208 405.323V267.522L432 192.855V298.649C418.631 288.608 402.01 282.656 384 282.656C339.817 282.656 304 318.475 304 362.656C304 406.839 339.817 442.656 384 442.656C428.184 442.656 464 406.839 464 362.656V159.746C464 158.985 464 158.228 464 157.474V127.99H463.791ZM432 362.656C432 336.147 410.509 314.656 384 314.656C357.492 314.656 336 336.147 336 362.656C336 389.167 357.492 410.656 384 410.656C410.509 410.656 432 389.167 432 362.656ZM176 405.323C176 378.814 154.51 357.323 128 357.323C101.491 357.323 80.0003 378.814 80.0003 405.323C80.0003 431.833 101.491 453.323 128 453.323C154.51 453.323 176 431.833 176 405.323Z" fill="white"/>
</g>
<defs>
<filter id="filter0_d_1_7504" x="-4" y="0" width="520" height="520" filterUnits="userSpaceOnUse" color-interpolation-filters="sRGB">
<feFlood flood-opacity="0" result="BackgroundImageFix"/>
<feColorMatrix in="SourceAlpha" type="matrix" values="0 0 0 0 0 0 0 0 0 0 0 0 0 0 0 0 0 0 127 0" result="hardAlpha"/>
<feOffset dy="4"/>
<feGaussianBlur stdDeviation="2"/>
<feComposite in2="hardAlpha" operator="out"/>
<feColorMatrix type="matrix" values="0 0 0 0 0 0 0 0 0 0 0 0 0 0 0 0 0 0 0.25 0"/>
<feBlend mode="normal" in2="BackgroundImageFix" result="effect1_dropShadow_1_7504"/>
<feBlend mode="normal" in="SourceGraphic" in2="effect1_dropShadow_1_7504" result="shape"/>
</filter>
</defs>
</svg>
