<svg width="512" height="512" viewBox="0 0 512 512" fill="none" xmlns="http://www.w3.org/2000/svg">
<path fill-rule="evenodd" clip-rule="evenodd" d="M126.891 26.6667H129.109C148.277 26.666 164.26 26.6656 176.949 28.3714C190.342 30.1721 202.434 34.1331 212.15 43.8498C221.867 53.5665 225.828 65.6582 227.629 79.0511C229.335 91.7399 229.333 107.723 229.333 126.891V385.109C229.333 404.277 229.335 420.26 227.629 432.949C225.828 446.342 221.867 458.434 212.15 468.149C202.434 477.867 190.342 481.828 176.949 483.629C164.26 485.335 148.277 485.333 129.109 485.333H126.891C107.723 485.333 91.74 485.335 79.0511 483.629C65.6583 481.828 53.5665 477.867 43.8498 468.149C34.1331 458.434 30.1722 446.342 28.3714 432.949C26.6656 420.26 26.666 404.277 26.6667 385.109V126.891C26.666 107.723 26.6656 91.7397 28.3714 79.0511C30.1722 65.6582 34.1331 53.5665 43.8498 43.8498C53.5665 34.1331 65.6583 30.1721 79.0511 28.3714C91.7397 26.6656 107.723 26.666 126.891 26.6667ZM83.315 60.0862C73.4705 61.4097 69.2574 63.6971 66.4772 66.4772C63.6971 69.2574 61.4097 73.4705 60.0862 83.315C58.7008 93.6198 58.6667 107.434 58.6667 128V384C58.6667 404.565 58.7008 418.381 60.0862 428.685C61.4097 438.53 63.6971 442.743 66.4772 445.523C69.2574 448.303 73.4705 450.59 83.315 451.915C93.6199 453.299 107.434 453.333 128 453.333C148.566 453.333 162.38 453.299 172.685 451.915C182.529 450.59 186.743 448.303 189.523 445.523C192.303 442.743 194.591 438.53 195.914 428.685C197.299 418.381 197.333 404.565 197.333 384V128C197.333 107.434 197.299 93.6198 195.914 83.315C194.591 73.4705 192.303 69.2574 189.523 66.4772C186.743 63.6971 182.529 61.4097 172.685 60.0862C162.38 58.7008 148.566 58.6666 128 58.6666C107.434 58.6666 93.6199 58.7008 83.315 60.0862ZM382.891 26.6667H385.109C404.277 26.666 420.26 26.6656 432.949 28.3714C446.342 30.1721 458.434 34.1331 468.149 43.8498C477.867 53.5665 481.828 65.6582 483.629 79.0511C485.335 91.7399 485.333 107.723 485.333 126.891V385.109C485.333 404.277 485.335 420.26 483.629 432.949C481.828 446.342 477.867 458.434 468.149 468.149C458.434 477.867 446.342 481.828 432.949 483.629C420.26 485.335 404.277 485.333 385.109 485.333H382.891C363.723 485.333 347.74 485.335 335.051 483.629C321.658 481.828 309.566 477.867 299.851 468.149C290.133 458.434 286.172 446.342 284.371 432.949C282.665 420.26 282.667 404.277 282.667 385.109V126.891C282.667 107.723 282.665 91.7399 284.371 79.0511C286.172 65.6582 290.133 53.5665 299.851 43.8498C309.566 34.1331 321.658 30.1721 335.051 28.3714C347.74 26.6656 363.723 26.666 382.891 26.6667ZM339.315 60.0862C329.47 61.4097 325.257 63.6971 322.477 66.4772C319.697 69.2574 317.41 73.4705 316.085 83.315C314.701 93.6198 314.667 107.434 314.667 128V384C314.667 404.565 314.701 418.381 316.085 428.685C317.41 438.53 319.697 442.743 322.477 445.523C325.257 448.303 329.47 450.59 339.315 451.915C349.619 453.299 363.435 453.333 384 453.333C404.565 453.333 418.381 453.299 428.685 451.915C438.53 450.59 442.743 448.303 445.523 445.523C448.303 442.743 450.59 438.53 451.915 428.685C453.299 418.381 453.333 404.565 453.333 384V128C453.333 107.434 453.299 93.6198 451.915 83.315C450.59 73.4705 448.303 69.2574 445.523 66.4772C442.743 63.6971 438.53 61.4097 428.685 60.0862C418.381 58.7008 404.565 58.6666 384 58.6666C363.435 58.6666 349.619 58.7008 339.315 60.0862Z" fill="white"/>
</svg>
