<svg width="512" height="512" viewBox="0 0 512 512" fill="none" xmlns="http://www.w3.org/2000/svg">
<g filter="url(#filter0_d_1_7513)">
<path fill-rule="evenodd" clip-rule="evenodd" d="M256 176C211.818 176 176 211.817 176 256C176 300.183 211.818 336 256 336C300.184 336 336 300.183 336 256C336 211.817 300.184 176 256 176ZM208 256C208 229.491 229.491 208 256 208C282.509 208 304 229.491 304 256C304 282.509 282.509 304 256 304C229.491 304 208 282.509 208 256Z" fill="white"/>
<path fill-rule="evenodd" clip-rule="evenodd" d="M255.46 26.6666C245.98 26.6664 238.063 26.6664 231.565 27.1097C224.8 27.5714 218.411 28.5664 212.216 31.1323C197.841 37.0867 186.42 48.5075 180.466 62.8825C177.366 70.3663 176.526 78.2532 176.206 86.8258C175.948 93.7171 172.47 99.4668 167.338 102.43C162.205 105.393 155.487 105.53 149.39 102.308C141.806 98.2991 134.556 95.0824 126.525 94.0251C111.098 91.9942 95.4971 96.1747 83.153 105.647C77.8334 109.729 73.7766 114.765 69.9946 120.393C66.3614 125.799 62.4038 132.654 57.6629 140.865L57.1242 141.799C52.3831 150.01 48.4254 156.865 45.5601 162.714C42.5775 168.804 40.2442 174.835 39.3689 181.483C37.338 196.909 41.5185 212.51 50.9903 224.855C55.9208 231.279 62.3304 235.951 69.5932 240.514C75.4338 244.183 78.675 250.071 78.6745 256C78.6743 261.926 75.4332 267.814 69.5932 271.484C62.3296 276.047 55.9193 280.719 50.9884 287.144C41.5164 299.488 37.3361 315.089 39.3668 330.515C40.2421 337.163 42.5753 343.196 45.558 349.284C48.4232 355.134 52.381 361.988 57.1219 370.199L57.6608 371.134C62.4017 379.345 66.3592 386.199 69.9925 391.605C73.7745 397.233 77.8312 402.27 83.1509 406.351C95.495 415.823 111.096 420.004 126.522 417.973C134.553 416.915 141.803 413.7 149.387 409.692C155.485 406.468 162.204 406.605 167.337 409.57C172.47 412.533 175.948 418.283 176.206 425.175C176.526 433.747 177.366 441.634 180.466 449.118C186.42 463.492 197.841 474.914 212.216 480.868C218.411 483.435 224.8 484.429 231.565 484.89C238.063 485.333 245.98 485.333 255.46 485.333H256.538C266.02 485.333 273.935 485.333 280.435 484.89C287.2 484.429 293.589 483.435 299.785 480.868C314.159 474.914 325.581 463.492 331.535 449.118C334.635 441.634 335.473 433.747 335.793 425.173C336.051 418.283 339.529 412.533 344.662 409.568C349.794 406.605 356.514 406.468 362.611 409.69C370.195 413.698 377.444 416.915 385.476 417.971C400.903 420.002 416.504 415.823 428.847 406.351C434.168 402.268 438.223 397.233 442.006 391.605C445.639 386.199 449.596 379.345 454.336 371.134L454.876 370.199C459.616 361.988 463.576 355.132 466.441 349.282C469.423 343.194 471.755 337.163 472.632 330.515C474.663 315.087 470.481 299.486 461.009 287.142C456.079 280.717 449.668 276.047 442.407 271.484C436.566 267.814 433.325 261.926 433.325 255.998C433.325 250.071 436.566 244.186 442.404 240.516C449.671 235.953 456.081 231.283 461.011 224.855C470.483 212.512 474.665 196.911 472.634 181.484C471.757 174.836 469.425 168.805 466.443 162.716C463.578 156.867 459.62 150.012 454.878 141.802L454.34 140.868C449.598 132.656 445.641 125.8 442.008 120.394C438.225 114.766 434.17 109.73 428.849 105.648C416.506 96.1762 400.905 91.9957 385.476 94.0266C377.447 95.0839 370.197 98.3001 362.613 102.309C356.516 105.531 349.796 105.394 344.664 102.431C339.531 99.4673 336.051 93.7167 335.793 86.8247C335.473 78.2523 334.635 70.3658 331.535 62.8825C325.581 48.5075 314.159 37.0867 299.785 31.1323C293.589 28.5664 287.2 27.5714 280.435 27.1097C273.935 26.6664 266.02 26.6664 256.538 26.6666H255.46ZM224.461 60.6965C226.108 60.0147 228.608 59.386 233.743 59.0355C239.023 58.6754 245.841 58.6666 256 58.6666C266.159 58.6666 272.977 58.6754 278.255 59.0355C283.392 59.386 285.892 60.0147 287.537 60.6965C294.072 63.4031 299.264 68.5943 301.969 75.1285C302.825 77.1895 303.531 80.4025 303.817 88.0207C304.448 104.925 313.174 121.201 328.664 130.144C344.152 139.086 362.611 138.504 377.566 130.6C384.305 127.038 387.443 126.044 389.654 125.753C396.666 124.83 403.757 126.73 409.368 131.035C410.782 132.12 412.576 133.971 415.448 138.243C418.4 142.635 421.816 148.535 426.895 157.333C431.975 166.131 435.377 172.04 437.705 176.792C439.968 181.415 440.674 183.895 440.907 185.661C441.831 192.673 439.93 199.765 435.625 205.376C434.266 207.146 431.838 209.365 425.38 213.421C411.059 222.421 401.327 238.114 401.325 255.998C401.325 273.884 411.057 289.579 425.38 298.579C431.836 302.635 434.264 304.853 435.623 306.624C439.928 312.235 441.828 319.326 440.905 326.338C440.672 328.104 439.966 330.583 437.703 335.206C435.375 339.957 431.972 345.867 426.893 354.664C421.813 363.462 418.398 369.363 415.446 373.756C412.574 378.027 410.78 379.878 409.365 380.962C403.755 385.269 396.664 387.168 389.651 386.246C387.441 385.954 384.303 384.96 377.564 381.399C362.609 373.493 344.149 372.913 328.659 381.856C313.174 390.799 304.448 407.074 303.817 423.979C303.531 431.597 302.825 434.81 301.969 436.872C299.264 443.405 294.072 448.597 287.537 451.304C285.892 451.985 283.392 452.614 278.255 452.964C272.977 453.325 266.159 453.333 256 453.333C245.841 453.333 239.023 453.325 233.743 452.964C228.608 452.614 226.108 451.985 224.461 451.304C217.929 448.597 212.736 443.405 210.03 436.872C209.176 434.81 208.468 431.597 208.183 423.979C207.551 407.076 198.826 390.799 183.337 381.856C167.847 372.913 149.389 373.495 134.434 381.399C127.694 384.962 124.558 385.956 122.346 386.246C115.334 387.17 108.242 385.269 102.631 380.964C101.218 379.88 99.4231 378.029 96.5519 373.756C93.6004 369.365 90.1839 363.464 85.1044 354.667C80.0247 345.869 76.6233 339.959 74.2957 335.208C72.0313 330.586 71.3256 328.104 71.0931 326.338C70.17 319.326 72.0702 312.235 76.3757 306.624C77.7337 304.855 80.1625 302.635 86.6178 298.579C100.941 289.581 110.674 273.886 110.675 256.002C110.676 238.114 100.942 222.419 86.618 213.419C80.1642 209.363 77.7357 207.144 76.3776 205.374C72.0723 199.763 70.1721 192.672 71.0952 185.66C71.3278 183.894 72.0335 181.413 74.2978 176.791C76.6255 172.039 80.0269 166.13 85.1063 157.332C90.186 148.534 93.6023 142.634 96.554 138.242C99.4253 133.97 101.22 132.118 102.633 131.034C108.244 126.728 115.336 124.828 122.348 125.751C124.56 126.043 127.696 127.036 134.437 130.599C149.392 138.503 167.849 139.085 183.338 130.143C198.826 121.201 207.551 104.925 208.183 88.0217C208.468 80.403 209.176 77.1897 210.03 75.1285C212.736 68.5943 217.929 63.4031 224.461 60.6965Z" fill="white"/>
</g>
<defs>
<filter id="filter0_d_1_7513" x="-4" y="0" width="520" height="520" filterUnits="userSpaceOnUse" color-interpolation-filters="sRGB">
<feFlood flood-opacity="0" result="BackgroundImageFix"/>
<feColorMatrix in="SourceAlpha" type="matrix" values="0 0 0 0 0 0 0 0 0 0 0 0 0 0 0 0 0 0 127 0" result="hardAlpha"/>
<feOffset dy="4"/>
<feGaussianBlur stdDeviation="2"/>
<feComposite in2="hardAlpha" operator="out"/>
<feColorMatrix type="matrix" values="0 0 0 0 0 0 0 0 0 0 0 0 0 0 0 0 0 0 0.25 0"/>
<feBlend mode="normal" in2="BackgroundImageFix" result="effect1_dropShadow_1_7513"/>
<feBlend mode="normal" in="SourceGraphic" in2="effect1_dropShadow_1_7513" result="shape"/>
</filter>
</defs>
</svg>
