<svg width="512" height="512" viewBox="0 0 512 512" fill="none" xmlns="http://www.w3.org/2000/svg">
<g filter="url(#filter0_d_1_7508)">
<path fill-rule="evenodd" clip-rule="evenodd" d="M192 26.6666C136.036 26.6666 90.667 72.0352 90.667 128C90.667 183.965 136.036 229.333 192 229.333C247.966 229.333 293.334 183.965 293.334 128C293.334 72.0352 247.966 26.6666 192 26.6666ZM122.667 128C122.667 89.7081 153.708 58.6666 192 58.6666C230.292 58.6666 261.334 89.7081 261.334 128C261.334 166.292 230.292 197.333 192 197.333C153.708 197.333 122.667 166.292 122.667 128Z" fill="white"/>
<path d="M320 48C311.164 48 304 55.1635 304 64C304 72.8365 311.164 80 320 80C346.509 80 368 101.49 368 128C368 154.51 346.509 176 320 176C311.164 176 304 183.164 304 192C304 200.836 311.164 208 320 208C364.184 208 400 172.183 400 128C400 83.8172 364.184 48 320 48Z" fill="white"/>
<path fill-rule="evenodd" clip-rule="evenodd" d="M78.4675 288.435C108.321 271.377 148.495 261.333 192 261.333C235.505 261.333 275.68 271.377 305.534 288.435C334.934 305.235 357.334 330.882 357.334 362.667C357.334 394.451 334.934 420.098 305.534 436.898C275.68 453.956 235.505 464 192 464C148.495 464 108.321 453.956 78.4675 436.898C49.067 420.098 26.667 394.451 26.667 362.667C26.667 330.882 49.067 305.235 78.4675 288.435ZM94.344 316.22C69.6965 330.304 58.667 347.322 58.667 362.667C58.667 378.012 69.6965 395.029 94.344 409.114C118.539 422.94 153.032 432 192 432C230.97 432 265.462 422.94 289.656 409.114C314.304 395.029 325.334 378.012 325.334 362.667C325.334 347.322 314.304 330.304 289.656 316.22C265.462 302.394 230.97 293.333 192 293.333C153.032 293.333 118.539 302.394 94.344 316.22Z" fill="white"/>
<path d="M387.429 283.038C378.797 281.145 370.264 286.607 368.372 295.238C366.479 303.87 371.941 312.403 380.572 314.295C397.477 318.003 410.985 324.369 419.902 331.665C428.83 338.969 432 346.105 432 352C432 357.348 429.428 363.627 422.334 370.216C415.19 376.853 404.214 382.984 390.055 387.249C381.592 389.796 376.798 398.72 379.345 407.183C381.895 415.644 390.819 420.437 399.279 417.89C416.828 412.606 432.519 404.433 444.113 393.662C455.759 382.841 464 368.61 464 352C464 333.551 453.884 318.123 440.167 306.899C426.439 295.665 407.947 287.537 387.429 283.038Z" fill="white"/>
</g>
<defs>
<filter id="filter0_d_1_7508" x="-4" y="0" width="520" height="520" filterUnits="userSpaceOnUse" color-interpolation-filters="sRGB">
<feFlood flood-opacity="0" result="BackgroundImageFix"/>
<feColorMatrix in="SourceAlpha" type="matrix" values="0 0 0 0 0 0 0 0 0 0 0 0 0 0 0 0 0 0 127 0" result="hardAlpha"/>
<feOffset dy="4"/>
<feGaussianBlur stdDeviation="2"/>
<feComposite in2="hardAlpha" operator="out"/>
<feColorMatrix type="matrix" values="0 0 0 0 0 0 0 0 0 0 0 0 0 0 0 0 0 0 0.25 0"/>
<feBlend mode="normal" in2="BackgroundImageFix" result="effect1_dropShadow_1_7508"/>
<feBlend mode="normal" in="SourceGraphic" in2="effect1_dropShadow_1_7508" result="shape"/>
</filter>
</defs>
</svg>
