<svg width="512" height="512" viewBox="0 0 512 512" fill="none" xmlns="http://www.w3.org/2000/svg">
<g filter="url(#filter0_d_2_3497)">
<path d="M361.217 46.1982C400.396 46.1982 432.153 77.9572 432.153 117.134C432.153 156.31 400.395 188.069 361.217 188.069C338.241 188.069 317.815 177.144 304.85 160.203L304.559 159.822L304.167 160.098L205.711 229.018L205.364 229.261L205.546 229.642C209.911 238.845 212.354 249.138 212.354 260.004C212.354 270.87 209.911 281.163 205.546 290.366L205.364 290.748L205.711 290.99L304.167 359.911L304.559 360.186L304.85 359.806C317.815 342.864 338.241 331.94 361.217 331.939C400.396 331.939 432.153 363.7 432.153 402.875C432.153 442.05 400.395 473.81 361.217 473.81C322.043 473.809 290.284 442.05 290.284 402.875C290.284 398.6 290.662 394.408 291.388 390.343L291.445 390.028L291.183 389.845L187.202 317.06C186.689 316.7 186.204 316.316 185.747 315.911L185.435 315.635L185.107 315.892C173.065 325.321 157.898 330.939 141.419 330.939C102.242 330.939 70.483 299.18 70.483 260.004C70.4832 220.828 102.242 189.069 141.419 189.069C157.898 189.069 173.065 194.688 185.107 204.115L185.435 204.372L185.747 204.096C186.09 203.792 186.449 203.5 186.823 203.222L187.202 202.948L291.183 130.162L291.445 129.979L291.388 129.665C290.662 125.598 290.284 121.41 290.284 117.134C290.284 77.9573 322.043 46.1984 361.217 46.1982ZM361.217 363.909C339.699 363.909 322.253 381.357 322.253 402.875C322.253 424.396 339.699 441.84 361.217 441.84C382.739 441.84 400.183 424.396 400.183 402.875C400.183 381.357 382.739 363.909 361.217 363.909ZM141.419 221.039C119.899 221.039 102.453 238.484 102.453 260.004C102.453 281.524 119.899 298.97 141.419 298.97C162.938 298.97 180.383 281.524 180.383 260.004C180.383 238.484 162.938 221.039 141.419 221.039ZM361.217 78.168C339.699 78.1682 322.253 95.614 322.253 117.134C322.253 138.653 339.699 156.098 361.217 156.099C382.739 156.099 400.183 138.654 400.183 117.134C400.183 95.6139 382.739 78.168 361.217 78.168Z" fill="white" stroke="white"/>
</g>
<defs>
<filter id="filter0_d_2_3497" x="-4" y="0" width="520" height="520" filterUnits="userSpaceOnUse" color-interpolation-filters="sRGB">
<feFlood flood-opacity="0" result="BackgroundImageFix"/>
<feColorMatrix in="SourceAlpha" type="matrix" values="0 0 0 0 0 0 0 0 0 0 0 0 0 0 0 0 0 0 127 0" result="hardAlpha"/>
<feOffset dy="4"/>
<feGaussianBlur stdDeviation="2"/>
<feComposite in2="hardAlpha" operator="out"/>
<feColorMatrix type="matrix" values="0 0 0 0 0 0 0 0 0 0 0 0 0 0 0 0 0 0 0.25 0"/>
<feBlend mode="normal" in2="BackgroundImageFix" result="effect1_dropShadow_2_3497"/>
<feBlend mode="normal" in="SourceGraphic" in2="effect1_dropShadow_2_3497" result="shape"/>
</filter>
</defs>
</svg>
