<svg width="512" height="512" viewBox="0 0 512 512" fill="none" xmlns="http://www.w3.org/2000/svg">
<g filter="url(#filter0_d_2_3497)">
<path d="M360.53 46.1982C399.615 46.1983 431.297 77.8815 431.297 116.965C431.297 156.048 399.615 187.731 360.53 187.731C337.608 187.731 317.231 176.832 304.297 159.932L304.006 159.551L303.613 159.826L205.389 228.584L205.043 228.826L205.224 229.208C209.58 238.39 212.016 248.658 212.016 259.498C212.016 270.338 209.58 280.607 205.224 289.788L205.043 290.17L205.389 290.412L303.613 359.17L304.006 359.444L304.297 359.064C317.231 342.163 337.608 331.265 360.53 331.265C399.615 331.265 431.297 362.949 431.297 402.031C431.296 441.113 399.615 472.798 360.53 472.798C321.448 472.798 289.766 441.113 289.765 402.031C289.765 397.766 290.142 393.585 290.867 389.529L290.923 389.215L290.661 389.031L186.926 316.418C186.414 316.059 185.93 315.676 185.474 315.272L185.163 314.996L184.835 315.253C172.821 324.659 157.691 330.265 141.25 330.265C102.166 330.265 70.4832 298.581 70.4832 259.498C70.4832 220.415 102.166 188.731 141.25 188.731C157.691 188.731 172.821 194.338 184.835 203.742L185.163 203.999L185.474 203.723C185.93 203.319 186.414 202.936 186.926 202.578L290.661 129.964L290.923 129.78L290.867 129.466C290.142 125.408 289.765 121.231 289.765 116.965C289.765 77.8815 321.448 46.1982 360.53 46.1982ZM360.53 363.156C339.062 363.156 321.656 380.563 321.656 402.031C321.656 423.502 339.062 440.905 360.53 440.905C382.001 440.905 399.404 423.502 399.404 402.031C399.404 380.563 382.001 363.156 360.53 363.156ZM141.25 220.624C119.78 220.624 102.376 238.028 102.376 259.498C102.376 280.968 119.78 298.372 141.25 298.372C162.719 298.372 180.124 280.968 180.124 259.498C180.124 238.028 162.719 220.624 141.25 220.624ZM360.53 78.0908C339.062 78.0908 321.656 95.4951 321.656 116.965C321.656 138.435 339.062 155.839 360.53 155.839C382.001 155.839 399.404 138.435 399.404 116.965C399.404 95.4952 382.001 78.0909 360.53 78.0908Z" fill="white" stroke="white"/>
</g>
<defs>
<filter id="filter0_d_2_3497" x="-4" y="0" width="520" height="520" filterUnits="userSpaceOnUse" color-interpolation-filters="sRGB">
<feFlood flood-opacity="0" result="BackgroundImageFix"/>
<feColorMatrix in="SourceAlpha" type="matrix" values="0 0 0 0 0 0 0 0 0 0 0 0 0 0 0 0 0 0 127 0" result="hardAlpha"/>
<feOffset dy="4"/>
<feGaussianBlur stdDeviation="2"/>
<feComposite in2="hardAlpha" operator="out"/>
<feColorMatrix type="matrix" values="0 0 0 0 0 0 0 0 0 0 0 0 0 0 0 0 0 0 0.25 0"/>
<feBlend mode="normal" in2="BackgroundImageFix" result="effect1_dropShadow_2_3497"/>
<feBlend mode="normal" in="SourceGraphic" in2="effect1_dropShadow_2_3497" result="shape"/>
</filter>
</defs>
</svg>
