<svg width="512" height="512" viewBox="0 0 512 512" fill="none" xmlns="http://www.w3.org/2000/svg">
<path fill-rule="evenodd" clip-rule="evenodd" d="M299.87 48C339.076 47.9996 370.129 47.9994 394.432 51.267C419.444 54.6296 439.688 61.7148 455.654 77.6798C471.619 93.645 478.704 113.889 482.066 138.901C485.334 163.204 485.334 194.257 485.333 233.463V278.537C485.334 317.743 485.334 348.796 482.066 373.099C478.704 398.11 471.619 418.355 455.654 434.321C439.688 450.285 419.444 457.37 394.432 460.734C370.13 464 339.076 464 299.871 464H212.13C205.427 464 198.959 464 192.725 463.983C192.484 463.994 192.243 464 192 464C191.725 464 191.452 463.994 191.181 463.979C161.656 463.889 137.372 463.396 117.568 460.734C92.5569 457.37 72.3115 450.285 56.3456 434.321C40.3819 418.355 33.2971 398.11 29.9329 373.099C26.6667 348.796 26.6667 317.743 26.6667 278.539V233.463C26.6667 194.258 26.6667 163.204 29.9329 138.901C33.2971 113.889 40.3819 93.645 56.3456 77.6798C72.3115 61.7148 92.5569 54.6296 117.568 51.267C137.372 48.6044 161.656 48.1116 191.181 48.0205C191.452 48.0068 191.725 48 192 48C192.243 48 192.484 48.0053 192.725 48.0162C198.961 48 205.425 48 212.13 48H299.87ZM208 80.0004C209.756 80 211.533 80 213.333 80H298.667C339.346 80 368.245 80.0339 390.169 82.9816C411.632 85.8673 423.998 91.2787 433.026 100.307C442.055 109.336 447.466 121.702 450.352 143.165C453.299 165.088 453.333 193.988 453.333 234.667V277.333C453.333 318.012 453.299 346.912 450.352 368.836C447.466 390.298 442.055 402.665 433.026 411.693C423.998 420.721 411.632 426.133 390.169 429.018C368.245 431.966 339.346 432 298.667 432H213.333C211.533 432 209.756 432 208 432V80.0004ZM176 431.878C153.95 431.646 136.358 430.972 121.83 429.018C100.369 426.133 88.0022 420.721 78.9739 411.693C69.9457 402.665 64.5334 390.298 61.6491 368.836C58.7008 346.912 58.6667 318.012 58.6667 277.333V234.667C58.6667 193.988 58.7008 165.088 61.6491 143.165C64.5334 121.702 69.9457 109.336 78.9739 100.307C88.0022 91.2787 100.369 85.8673 121.83 82.9816C136.358 81.0285 153.95 80.3546 176 80.1222V431.878Z" fill="white"/>
</svg>
