<svg width="512" height="512" viewBox="0 0 512 512" fill="none" xmlns="http://www.w3.org/2000/svg">
<path fill-rule="evenodd" clip-rule="evenodd" d="M450.97 38.4791C471.59 52.5818 485.333 77.7615 485.333 107.37V404.634C485.333 434.242 471.59 459.422 450.97 473.525C430.089 487.806 402.458 490.298 378.076 474.554L147.91 325.92C123.37 310.074 112 282.33 112 256.002C112 229.673 123.37 201.929 147.91 186.082L378.076 37.4507C402.458 21.706 430.089 24.198 450.97 38.4791ZM432.905 64.8922C421.758 57.2689 408.102 56.1534 395.435 64.3328L165.27 212.964C151.69 221.734 144 238.159 144 256.002C144 273.843 151.69 290.27 165.27 299.038L395.435 447.671C408.102 455.851 421.758 454.735 432.905 447.11C444.311 439.309 453.333 424.288 453.333 404.634V107.37C453.333 87.7156 444.311 72.694 432.905 64.8922ZM42.6667 90.6684C51.5032 90.6684 58.6667 97.8317 58.6667 106.668V405.335C58.6667 414.172 51.5032 421.335 42.6667 421.335C33.8302 421.335 26.6667 414.172 26.6667 405.335V106.668C26.6667 97.8317 33.8302 90.6684 42.6667 90.6684Z" fill="white"/>
</svg>
