<svg width="512" height="512" viewBox="0 0 512 512" fill="none" xmlns="http://www.w3.org/2000/svg">
<path fill-rule="evenodd" clip-rule="evenodd" d="M133.924 37.4507C109.542 21.706 81.9104 24.198 61.03 38.4791C40.4103 52.5818 26.6667 77.7615 26.6667 107.37V404.634C26.6667 434.242 40.4103 459.422 61.03 473.525C81.9106 487.806 109.542 490.298 133.924 474.554L364.09 325.92C388.629 310.074 400 282.33 400 256.002C400 229.673 388.629 201.929 364.09 186.082L133.924 37.4507ZM58.6667 107.37C58.6667 87.7156 67.6879 72.694 79.0948 64.8922C90.2411 57.2689 103.898 56.1534 116.565 64.3328L346.731 212.964C360.309 221.734 368 238.159 368 256.002C368 273.843 360.309 290.27 346.731 299.038L116.565 447.671C103.898 455.851 90.2411 454.735 79.0951 447.11C67.6879 439.309 58.6667 424.288 58.6667 404.634V107.37Z" fill="white"/>
<path d="M485.333 106.668C485.333 97.8317 478.17 90.6684 469.333 90.6684C460.497 90.6684 453.333 97.8317 453.333 106.668V405.335C453.333 414.172 460.497 421.335 469.333 421.335C478.17 421.335 485.333 414.172 485.333 405.335V106.668Z" fill="white"/>
</svg>
